<svg xmlns="http://www.w3.org/2000/svg" viewBox="0 0 792 501" enable-background="new 0 0 792 501"><defs><style type="text/css"><![CDATA[
.letters {
	opacity: 0;
	-webkit-animation: fade 4s ease forwards;
  animation: fade 4s ease forwards;
} 
.an2 {
  stroke-dasharray: 100%;
  stroke-dashoffset: 100%;
  -webkit-animation: dash 8s ease forwards;
  animation: dash 8s ease forwards;
}
.an3 {
	opacity: 0;
	-webkit-animation: surge 2s ease forwards;
  animation: surge 2s ease forwards;
}

.letters.l-space {
	-webkit-animation-delay: 0s;
	animation-delay: 0s;
}
.an2.l-space {
	-webkit-animation-delay: 2s;
	animation-delay: 2s;
}
.an3.l-space {
	-webkit-animation-delay: 4s;
	animation-delay: 4s;
}
.letters.l-texture {
	-webkit-animation-delay: 1s;
	animation-delay: 1s;
}
.an2.l-texture {
	-webkit-animation-delay: 3s;
	animation-delay: 3s;
}
.an3.l-texture {
	-webkit-animation-delay: 5s;
	animation-delay: 5s;
}
.letters.l-shape {
	-webkit-animation-delay: 3s;
	animation-delay: 3s;
}
.an2.l-shape {
	-webkit-animation-delay: 5s;
	animation-delay: 5s;
}
.an3.l-shape {
	-webkit-animation-delay: 7s;
	animation-delay: 7s;
}
.letters.l-line {
	-webkit-animation-delay: 2s;
	animation-delay: 2s;
}
.an2.l-line {
	-webkit-animation-delay: 4s;
	animation-delay: 4s;
}
.an3.l-line {
	-webkit-animation-delay: 6s;
	animation-delay: 6s;
}
.letters.l-value {
	-webkit-animation-delay: 1s;
	animation-delay: 1s;
}
.an2.l-value {
	-webkit-animation-delay: 3s;
	animation-delay: 3s;
}
.an3.l-value {
	-webkit-animation-delay: 5s;
	animation-delay: 5s;
}
.letters.l-colors {
	-webkit-animation-delay: 3s;
	animation-delay: 3s;
}
.an2.l-colors {
	-webkit-animation-delay: 5s;
	animation-delay: 5s;
}
.an3.l-colors {
	-webkit-animation-delay: 7s;
	animation-delay: 7s;
}
.letters.l-size {
	-webkit-animation-delay: 0s;
	animation-delay: 0s;
}
.an2.l-size {
	-webkit-animation-delay: 2s;
	animation-delay: 2s;
}
.an3.l-size {
	-webkit-animation-delay: 4s;
	animation-delay: 4s;
}

@-webkit-keyframes dash {
  to { stroke-dashoffset: 0%; }
}
@keyframes dash {
  to { stroke-dashoffset: 0%; }
}

@-webkit-keyframes fade {
  to { opacity: 1; }
}
@keyframes fade {
  to { opacity: 1; }
}

@-webkit-keyframes surge {
  0%   { opacity: 0; }
  50%  { opacity: 1; }
  80%  { opacity: .5; }
  100% { opacity: 1; }
}

]]></style></defs><g class="letters l-value" fill="#58595B"><path d="M171.762 380.754c.553-.464 1.111-.432 1.672.098.626.586.565 1.241-.183 1.965-.586.578-1.28 1.602-2.082 3.07-.801 1.469-1.202 2.452-1.202 2.948 0 .432-.143.771-.427 1.02-.285.248-.651.352-1.099.311-.326-.024-.551-.089-.677-.195-.126-.105-.283-.354-.47-.744-.293-.618-.908-1.367-1.843-2.246-.936-.879-1.742-1.469-2.417-1.771-.651-.284-1.07-.565-1.257-.842-.188-.276-.171-.59.049-.94.089-.122.202-.229.335-.323.135-.094.254-.141.36-.141.301 0 .828.269 1.581.806.752.537 1.637 1.278 2.655 2.222l1.819 1.685.33-.646 1.306-2.503c.26-.513.494-1.027.702-1.544.207-.517.323-.885.348-1.104.032-.228.093-.445.183-.653.089-.21.195-.368.317-.473zM182.113 384.587c.065-.105.24-.124.525-.055.285.068.517.185.696.348.105.098.157.238.152.421-.004.184-.071.511-.201.982-.179.692-.24 1.38-.183 2.063.057.684.22 1.262.488 1.733.105.179.195.37.269.573.073.204.11.354.11.452 0 .235-.122.427-.366.573s-.527.212-.849.195c-.321-.017-.588-.118-.799-.305-.13-.122-.222-.291-.275-.507-.053-.216-.079-.539-.079-.971 0-.765-.037-1.147-.11-1.147s-.326.195-.757.586c-.603.546-1.363 1.095-2.283 1.648-.92.553-1.624.883-2.112.988-.366.081-.704.051-1.013-.091-.31-.143-.525-.365-.647-.666s-.118-.618.012-.952c.13-.35.663-.956 1.599-1.818.936-.862 1.931-1.677 2.985-2.441 1.054-.765 1.788-1.2 2.203-1.307.138-.032.271-.079.396-.14.127-.059.207-.113.239-.162zm-1.098 2.759c0-.22-.049-.33-.146-.33-.13.009-.606.298-1.428.867-.423.285-.875.637-1.355 1.056-.48.419-.871.796-1.172 1.129-.301.334-.423.529-.366.586.073.073.378-.036.916-.329s.984-.586 1.343-.879c.391-.334.647-.501.769-.501.171 0 .454-.22.849-.659.392-.44.59-.753.59-.94zM185.043 381.096c.138-.171.346-.248.623-.232.276.017.521.127.732.33.154.139.252.354.293.646.041.293.061.896.061 1.807 0 1.416.1 2.505.299 3.266.2.761.356 1.833.47 3.217.049.569.122 1.146.22 1.728.098.581.187.994.269 1.238.26.749.289 1.237.085 1.465-.188.212-.48.098-.879-.342-.293-.317-.576-1.123-.849-2.417-.272-1.294-.572-3.247-.897-5.859-.082-.635-.179-1.251-.293-1.849-.114-.599-.212-.999-.293-1.203-.293-.693-.24-1.29.159-1.795zM189.181 385.686c.228-.342.496-.503.806-.482.309.021.541.218.696.592.163.391.208.68.134.867-.106.276-.024.746.244 1.41.269.663.578 1.146.928 1.446.398.35.781.543 1.147.58.366.036.777-.084 1.233-.36.472-.285.804-.597.995-.934.191-.338.217-.661.079-.971-.155-.383-.218-.721-.189-1.014.029-.293.151-.513.366-.659.216-.146.482-.171.8-.073.293.098.533.368.72.812.187.443.244.868.171 1.275-.09.423-.36.883-.812 1.379-.451.497-.999.935-1.642 1.312-.643.379-1.257.624-1.843.738-.847.154-1.634-.181-2.362-1.007-.729-.826-1.26-1.987-1.593-3.485-.09-.391-.126-.673-.11-.848.016-.174.093-.367.232-.578zM201.4 384.403c.562-.122.942-.171 1.141-.146.2.024.441.151.727.379.342.276.645.708.909 1.294.265.586.324.964.177 1.135-.204.244-1.274.61-3.21 1.099-.261.065-.494.141-.702.227-.207.085-.328.152-.36.201-.082.146.126.468.623.964.496.497.956.839 1.379 1.025 1.196.537 2.258.334 3.186-.61.398-.415.716-.86.952-1.336.236-.477.342-.897.317-1.264-.008-.228.063-.46.214-.696.15-.235.333-.41.549-.524.216-.114.401-.122.556-.024.13.081.218.226.263.434.044.207.067.56.067 1.056-.008.537-.051.946-.128 1.227-.077.281-.254.641-.531 1.08-.261.415-.417.706-.47.873-.053.167-.026.283.08.348.13.105.089.159-.122.159-.106 0-.299.071-.58.214-.281.142-.564.314-.849.519l-.488.329c-.114.073-.263.143-.445.208-.184.064-.334.107-.452.128-.118.021-.319.028-.604.024s-.554-.017-.806-.036l-1.135-.104c-.399-.032-.738-.077-1.02-.134-.28-.058-.421-.106-.421-.146 0-.098-.338-.651-1.013-1.66-.439-.676-.722-1.168-.848-1.478-.126-.309-.21-.736-.25-1.281-.041-.562-.039-.944.006-1.147.044-.203.189-.447.433-.732.293-.35.708-.676 1.245-.977s1.073-.513 1.61-.628zm.965 1.527l-.043-.092-.189-.024-.348.049-.567.128c-.456.106-.745.269-.867.488-.065.131-.033.236.098.317.114.065.459-.03 1.038-.286.576-.257.869-.45.878-.58zm6.262-13.416c.13-.13.208-.134.232-.012.016.081.024.24.024.476 0 .171-.019.313-.055.428-.037.114-.084.171-.141.171-.114 0-.179-.152-.195-.458-.016-.306.029-.508.135-.605z"/></g><g class="letters l-colors" fill="#58595B"><path d="M446.035 422.843c.626-.626 1.052-1.013 1.275-1.159s.466-.199.727-.159c.513.09.846.34 1.001.751.154.411.077.836-.232 1.275-.122.171-.242.281-.359.33-.118.049-.279.053-.482.012-.212-.049-.405-.028-.58.062s-.43.293-.763.61c-.358.342-.688.763-.989 1.264-.301.5-.451.872-.451 1.116 0 .033.044.088.134.165s.199.148.33.214c.187.098.389.146.604.146.215 0 .555-.045 1.019-.135.48-.105 1.19-.37 2.131-.793.939-.423 1.804-.865 2.594-1.324.789-.46 1.229-.783 1.318-.971.154-.334.368-.527.641-.58s.515.055.727.323c.235.285.354.501.354.647 0 .203-.555.637-1.666 1.3-1.11.663-2.321 1.298-3.632 1.904s-2.218.938-2.722.995c-1.392.171-2.368-.049-2.93-.659-.505-.537-.582-1.282-.232-2.234s1.076-1.985 2.183-3.1zM457.424 423.551c.472-.521 1.241-.431 2.308.269.643.424 1.088.888 1.336 1.392.249.505.315 1.083.202 1.733-.163.879-.562 1.632-1.196 2.259-.635.626-1.425 1.045-2.368 1.257-1.327.301-1.974-.061-1.941-1.086.024-.725.387-1.75 1.087-3.076.26-.505.425-.873.494-1.104.069-.232.059-.393-.03-.482-.336-.327-.299-.714.108-1.162zm2.319 2.466c-.13-.325-.313-.532-.549-.622-.195-.041-.306.041-.33.244 0 .188-.195.655-.586 1.403-.163.302-.303.601-.421.897s-.177.499-.177.604c0 .154.032.242.098.263.064.02.203-.011.415-.092.269-.105.537-.297.806-.574.269-.276.513-.61.732-1.001.122-.211.183-.384.183-.519 0-.133-.057-.335-.171-.603zM462.393 419.096c.138-.171.346-.248.622-.232.276.017.521.127.732.33.154.139.252.354.293.646s.062.896.062 1.807c0 1.416.1 2.505.299 3.266s.355 1.833.47 3.217c.049.569.122 1.146.22 1.728.098.581.188.994.269 1.238.261.749.289 1.237.086 1.465-.188.212-.48.098-.879-.342-.293-.317-.576-1.123-.849-2.417s-.572-3.247-.897-5.859c-.081-.635-.179-1.251-.293-1.849-.114-.599-.212-.999-.293-1.203-.295-.693-.242-1.29.158-1.795zM467.959 423.551c.472-.521 1.24-.431 2.307.269.643.424 1.089.888 1.337 1.392.248.505.315 1.083.201 1.733-.163.879-.562 1.632-1.196 2.259-.635.626-1.424 1.045-2.368 1.257-1.326.301-1.974-.061-1.94-1.086.024-.725.386-1.75 1.086-3.076.261-.505.426-.873.495-1.104.068-.232.059-.393-.031-.482-.335-.327-.298-.714.109-1.162zm2.319 2.466c-.131-.325-.313-.532-.55-.622-.195-.041-.305.041-.329.244 0 .188-.195.655-.586 1.403-.163.302-.304.601-.421.897-.118.297-.178.499-.178.604 0 .154.032.242.098.263.065.02.203-.011.415-.092.269-.105.537-.297.806-.574.269-.276.513-.61.732-1.001.122-.211.184-.384.184-.519 0-.133-.057-.335-.171-.603zM476.968 423.246c.406-.139.654-.21.744-.214s.167.047.232.152c.187.31-.11.708-.892 1.196-.488.302-.979.745-1.471 1.331s-.824 1.119-.995 1.599c-.171.48-.261 1.059-.269 1.733-.008.48-.043.788-.104.922-.062.135-.234.274-.519.421-.473.252-.788.315-.946.189-.159-.126-.201-.47-.128-1.031.089-.618.188-1.715.299-3.29.109-1.574.171-2.378.183-2.411.013-.032.157-.049.434-.049.13 0 .224.022.281.067.057.045.068.108.036.189-.024.065-.024.179 0 .342s.069.321.135.476l.244.574.391-.672c.195-.325.478-.608.848-.848.372-.238.87-.464 1.497-.676z"/></g><g class="letters l-shape" fill="#58595B"><path d="M418.489 72.793c.342-.098.751-.12 1.228-.067.476.053.726.148.75.287.024.163-.346.446-1.11.848-.766.403-1.624.771-2.576 1.105-.725.252-1.27.464-1.636.635l-.549.256 1.086.452c.732.301 1.444.542 2.137.72.691.188 1.39.466 2.094.836.703.371 1.148.698 1.336.983.171.269.227.542.165.818-.061.277-.222.484-.482.623-.391.211-.999.364-1.824.458-.826.094-1.63.108-2.411.043-.781-.065-1.311-.2-1.587-.403-.326-.236-.322-.407.012-.513.31-.098.989-.175 2.039-.232 1.358-.065 2.079-.138 2.16-.22.139-.146-.061-.35-.598-.61-.473-.228-1.226-.513-2.259-.854-1.106-.358-1.918-.651-2.435-.879-.518-.228-.878-.445-1.081-.653-.203-.207-.305-.461-.305-.763 0-.293.032-.484.098-.574.064-.089.211-.159.439-.208.366-.073.736-.206 1.11-.396.374-.191.633-.287.775-.287s.482-.122 1.02-.366c1.294-.595 2.095-.941 2.404-1.039zM422.774 66.873c.122-.309.307-.484.556-.525.248-.041.44.069.579.33.122.22.13.692.024 1.416-.049.293-.094.745-.134 1.355-.041.61-.073 1.257-.098 1.941s-.043 1.345-.055 1.983c-.013.639-.013 1.166 0 1.581.012.415.034.623.066.623.041 0 .146-.1.317-.299.171-.199.358-.441.562-.726.407-.553.971-1.149 1.691-1.789.72-.639 1.315-1.072 1.788-1.3.398-.195.752-.203 1.062-.024.31.179.55.533.721 1.062.171.545.303.883.396 1.013.094.13.185.566.274 1.306.049.326.069.576.062.75-.009.175-.035.292-.079.348-.045.057-.137.106-.275.146-.261.082-.547.017-.86-.195-.313-.211-.576-.515-.787-.91-.212-.395-.317-.787-.317-1.178 0-.098-.026-.183-.079-.256-.054-.073-.112-.11-.178-.11-.269 0-.73.338-1.385 1.013-.655.676-1.179 1.355-1.569 2.039-.521.896-.941 1.501-1.263 1.819-.322.317-.638.436-.946.354-.578-.138-.79-.797-.635-1.978.081-.578.162-2.266.244-5.066.032-1.155.079-2.195.141-3.119.061-.922.12-1.457.177-1.604zM438.839 73.587c.064-.105.239-.124.524-.055.285.069.517.185.696.348.105.098.156.238.152.421-.004.184-.071.511-.201.983-.18.692-.24 1.379-.184 2.063s.22 1.262.488 1.733c.105.179.195.371.269.574.073.204.11.354.11.452 0 .236-.122.427-.366.574s-.527.211-.849.195c-.321-.017-.588-.118-.8-.305-.13-.122-.222-.291-.274-.507-.053-.215-.079-.539-.079-.97 0-.765-.037-1.147-.11-1.147s-.325.195-.757.586c-.603.545-1.363 1.095-2.282 1.648-.92.553-1.624.883-2.112.989-.366.081-.704.051-1.013-.091-.31-.143-.525-.365-.647-.666s-.118-.618.013-.952c.13-.35.663-.956 1.599-1.819.936-.862 1.931-1.676 2.985-2.441 1.054-.765 1.788-1.2 2.203-1.306.138-.032.271-.08.396-.14.127-.064.206-.118.239-.167zm-1.099 2.759c0-.22-.049-.33-.146-.33-.131.008-.606.297-1.429.867-.423.285-.875.637-1.354 1.056-.48.419-.871.796-1.172 1.129-.302.334-.424.529-.366.586.073.073.378-.037.915-.33s.984-.586 1.343-.879c.391-.333.647-.5.77-.5.171 0 .453-.22.849-.659.393-.44.59-.753.59-.94zM442.391 74.466c.358-.187.646-.258.861-.214.215.045.604.247 1.165.604.545.35 1.033.747 1.465 1.19.432.443.655.787.672 1.031l.073.513c.032.269-.084.604-.348 1.007-.265.403-.615.775-1.05 1.117-.436.342-.857.569-1.264.684-.358.105-.615.232-.77.378s-.262.364-.323.653c-.061.289-.092.743-.092 1.361 0 .984.06 1.666.178 2.045.117.378.314.531.592.458.357-.09.541.044.549.403.008.269-.094.614-.305 1.038-.188.382-.342.623-.464.72s-.338.146-.647.146c-.195 0-.355-.019-.481-.055-.127-.037-.24-.118-.342-.244-.103-.126-.18-.281-.232-.464-.053-.184-.096-.456-.128-.818-.033-.362-.054-.761-.062-1.196-.008-.435-.012-1.003-.012-1.703.008-2.206.089-4.158.244-5.859l.098-1.038.085-.702c.032-.231.062-.392.086-.482l.109-.275c.049-.093.096-.156.141-.189l.202-.109zm2.27 2.71c-.081-.26-.313-.5-.695-.72-.358-.203-.578-.228-.659-.073l-.013.024c-.032.106-.073.366-.122.781s-.085.808-.109 1.178c-.024.37-.024.555 0 .555.04 0 .256-.065.646-.195.358-.122.631-.335.818-.641.187-.305.232-.608.134-.909zM450.691 73.404c.562-.122.942-.171 1.142-.146s.441.151.727.378c.342.277.645.708.909 1.294s.323.964.177 1.135c-.203.244-1.273.61-3.21 1.099-.261.065-.494.14-.702.226-.207.085-.328.152-.36.201-.081.146.126.468.623.964.496.497.956.838 1.379 1.025 1.196.537 2.259.334 3.187-.61.398-.415.716-.861.952-1.336.235-.477.342-.897.317-1.264-.009-.228.062-.459.214-.696.15-.236.333-.411.549-.525.216-.114.4-.122.556-.024.13.082.218.226.263.434.044.207.066.56.066 1.056-.008.537-.051.946-.128 1.227-.077.281-.255.641-.531 1.081-.261.415-.417.706-.47.873-.053.167-.026.283.079.348.13.105.09.159-.122.159-.105 0-.299.071-.579.214-.281.142-.564.315-.849.519l-.488.33c-.114.073-.263.142-.445.208-.184.065-.334.108-.452.128-.118.021-.319.029-.604.024-.285-.004-.554-.016-.806-.036l-1.135-.104c-.399-.033-.738-.078-1.02-.134-.28-.057-.421-.106-.421-.146 0-.098-.338-.651-1.014-1.66-.439-.675-.722-1.167-.848-1.477-.127-.309-.21-.736-.251-1.282-.041-.562-.038-.944.007-1.147.044-.203.188-.447.433-.732.293-.35.708-.675 1.245-.977.536-.305 1.073-.513 1.61-.627zm.965 1.526l-.043-.092-.189-.024-.348.049-.567.128c-.456.106-.745.269-.867.488-.065.13-.032.236.098.317.114.065.46-.031 1.038-.287.576-.256.869-.449.878-.579zm6.262-13.416c.13-.13.208-.134.232-.012.016.082.024.24.024.476 0 .171-.019.313-.055.427-.037.114-.084.171-.141.171-.114 0-.18-.152-.195-.458-.015-.305.029-.506.135-.604z"/></g><g class="letters l-line" fill="#58595B"><path d="M605.975 30.599c.138-.171.346-.248.622-.232.276.017.521.126.732.33.154.139.252.354.293.647s.062.896.062 1.807c0 1.416.1 2.504.299 3.265.199.761.355 1.833.47 3.217.049.57.122 1.146.22 1.728.098.582.188.995.269 1.239.261.749.289 1.237.086 1.465-.188.211-.48.098-.879-.342-.293-.317-.576-1.123-.849-2.417s-.572-3.247-.897-5.859c-.081-.635-.179-1.251-.293-1.849-.114-.599-.212-.999-.293-1.203-.295-.693-.242-1.291.158-1.796zM610.223 31.917c.13-.089.319-.096.567-.019.248.078.445.206.592.385.13.146.255.603.373 1.367.117.765.213 1.721.286 2.869.024.375.075.737.153 1.086.077.35.16.59.25.72.211.334.235.682.073 1.043-.163.362-.436.568-.818.617-.374.041-.651-.153-.83-.58-.179-.428-.305-1.215-.378-2.362-.041-.521-.103-1.064-.184-1.63-.081-.565-.163-.986-.244-1.263-.146-.496-.205-.96-.177-1.392.029-.43.141-.711.337-.841zm.927-4.504c.228-.228.402-.346.524-.354.122-.008.313.094.574.305.35.277.626.732.83 1.367.187.578.187.92 0 1.025l-.098.024c-.139 0-.479-.089-1.02-.269-.541-.179-.865-.309-.971-.391-.188-.138-.262-.403-.226-.793.04-.389.168-.695.387-.914zM614.775 36.214c.203-.065.349-.104.434-.116.086-.012.271.1.556.336.203.163.317.312.342.445.024.135-.013.43-.11.885-.139.651-.252 1.086-.342 1.306-.105.293-.098.407.024.342.188-.089.521-.472 1.001-1.147.456-.635.997-1.162 1.624-1.581.626-.419 1.123-.583 1.489-.494.284.073.6.336.946.787.346.452.596.93.75 1.435.065.22.157.444.275.671.117.228.226.387.323.476.252.22.368.454.348.702-.021.248-.173.47-.458.665-.261.163-.537.224-.83.183-.293-.041-.558-.179-.793-.415-.073-.073-.159-.246-.257-.519-.098-.272-.183-.567-.256-.885-.155-.675-.336-1.058-.543-1.147-.208-.089-.544.069-1.008.476-.374.334-.822.975-1.343 1.922-.521.948-.781 1.597-.781 1.947 0 .325-.175.594-.524.806-.351.211-.676.248-.977.11-.261-.114-.469-.384-.623-.812-.154-.427-.158-.734-.012-.921.049-.065.077-.171.085-.317s-.006-.293-.042-.439c-.037-.146-.043-.472-.019-.977.024-.504.073-1.038.146-1.599.098-.765.189-1.302.274-1.611.088-.311.187-.481.301-.514zM626.507 33.907c.562-.122.941-.171 1.141-.146.2.024.441.151.727.378.342.277.646.708.909 1.294.265.586.324.964.178 1.135-.204.244-1.274.61-3.211 1.099-.261.065-.494.14-.702.226-.207.085-.327.152-.359.201-.082.146.126.468.622.964.496.497.956.838 1.38 1.025 1.196.537 2.258.334 3.186-.61.398-.415.716-.861.952-1.336.236-.477.342-.897.317-1.264-.008-.228.063-.459.214-.696.15-.236.334-.411.549-.525.216-.114.401-.122.556-.024.13.082.218.226.263.434.045.207.067.56.067 1.056-.009.537-.051.946-.129 1.227-.077.281-.254.641-.53 1.081-.261.415-.417.706-.471.873-.053.167-.026.283.08.348.13.105.089.159-.122.159-.106 0-.3.071-.58.214-.281.142-.563.315-.849.519l-.488.33s-.263.142-.445.208c-.184.065-.334.108-.452.128-.117.021-.319.029-.604.024-.285-.004-.554-.016-.806-.036l-1.136-.104c-.398-.033-.738-.078-1.02-.134-.28-.057-.421-.106-.421-.146 0-.098-.338-.651-1.013-1.66-.439-.675-.723-1.167-.849-1.477-.126-.309-.21-.736-.25-1.282-.041-.562-.039-.944.006-1.147.045-.203.189-.447.434-.732.293-.35.708-.675 1.245-.977.537-.305 1.074-.513 1.611-.627zm.964 1.526l-.043-.092-.188-.024-.349.049-.567.128c-.456.106-.744.269-.866.488-.065.13-.033.236.098.317.113.065.459-.031 1.037-.287.577-.256.87-.449.878-.579zm6.262-13.416c.13-.13.207-.134.231-.012.017.082.024.24.024.476 0 .171-.019.313-.055.427-.037.114-.084.171-.141.171-.114 0-.179-.152-.195-.458-.015-.305.03-.506.136-.604z"/></g><g class="letters l-size" fill="#58595B"><path d="M661.81 392.112c.342-.098.751-.12 1.228-.067.476.053.726.148.75.287.024.163-.346.445-1.11.848-.766.403-1.624.771-2.576 1.105-.725.252-1.27.464-1.636.635l-.549.256 1.086.452c.732.301 1.444.541 2.137.72.691.188 1.39.466 2.094.836.703.371 1.148.698 1.336.983.171.269.227.541.165.817-.061.277-.222.484-.482.623-.391.211-.999.364-1.824.457-.826.094-1.63.108-2.411.043s-1.311-.199-1.587-.402c-.326-.236-.322-.407.012-.513.31-.098.989-.175 2.039-.232 1.358-.064 2.079-.138 2.16-.22.139-.146-.061-.35-.598-.61-.473-.228-1.226-.513-2.259-.854-1.106-.357-1.918-.65-2.435-.879-.518-.228-.878-.445-1.081-.653-.203-.207-.305-.461-.305-.763 0-.293.032-.483.098-.573.064-.09.211-.159.439-.208.366-.073.736-.205 1.11-.396s.633-.287.775-.287.482-.122 1.02-.366c1.293-.595 2.094-.941 2.404-1.039zM665.826 390.732c.13-.089.319-.096.567-.019.248.078.445.206.592.385.13.146.255.603.373 1.367.117.766.213 1.722.286 2.869.024.374.075.736.153 1.086.077.351.16.591.25.721.211.334.235.682.073 1.043-.163.362-.436.568-.818.617-.374.041-.651-.153-.83-.58-.179-.428-.305-1.215-.378-2.362-.041-.521-.103-1.063-.184-1.63-.081-.565-.163-.986-.244-1.263-.146-.496-.205-.96-.177-1.392s.142-.711.337-.842zm.928-4.503c.228-.228.402-.346.524-.354.122-.008.313.094.574.306.35.276.626.732.83 1.367.187.578.187.92 0 1.025l-.098.024c-.139 0-.479-.09-1.02-.269s-.865-.31-.971-.391c-.188-.139-.262-.403-.226-.794.039-.39.167-.695.387-.914zM673.748 393.626c.447-.09.77-.139.965-.146s.354.018.476.079.257.189.403.385c.252.325.378.579.378.763 0 .183-.134.441-.402.775l-.428.549.916-.109c.357-.041.635-.043.83-.007.195.037.386.133.573.287.325.253.488.432.488.537 0 .155-.216.285-.646.391-.432.106-.773.11-1.025.013-.334-.122-.721-.184-1.16-.184-.269 0-.49.054-.665.159s-.401.334-.678.684l-.098.122-.274.342-.195.269-.146.213-.055.153v.115l.104.056.165.036.287-.006.354-.019.47-.036.159-.013c.479-.04.913-.096 1.3-.165.387-.068.612-.128.678-.177.162-.138.309-.166.439-.085.049.032.165.032.348 0 .184-.032.372-.09.567-.171.48-.203 1.054-.346 1.722-.428.439-.049.74-.053.903-.012.162.041.346.167.549.378.301.317.409.588.324.812-.086.225-.369.434-.849.629s-.863.257-1.147.184c-.261-.065-.563.002-.909.201-.347.199-.52.409-.52.629 0 .13-.017.195-.049.195-.041 0-.139-.073-.293-.22-.188-.171-.526-.275-1.019-.312-.493-.037-.78.019-.861.165-.057.089-.265.109-.622.061-.358-.049-.615-.134-.77-.256-.139-.098-.554-.094-1.245.012s-1.11.232-1.257.379c-.058.057-.137.105-.238.146-.102.04-.193.061-.274.061-.18 0-.424-.143-.732-.427-.31-.285-.464-.505-.464-.659 0-.065.092-.188.274-.366.184-.179.407-.364.672-.556.264-.191.534-.415.812-.672.276-.256.476-.474.598-.652l.464-.635-.769.122c-.521.09-.916.171-1.185.244-.325.09-.517-.004-.573-.281-.065-.284.024-.562.269-.83.13-.138.28-.239.451-.305.301-.098.854-.13 1.66-.098.562.024.924.01 1.087-.043.162-.053.346-.205.549-.458l.428-.549-.61-.062c-.415-.04-1.036.049-1.861.269-.826.22-1.406.452-1.74.696-.228.171-.389.262-.481.274-.094.012-.206-.047-.336-.177-.082-.081-.151-.197-.208-.349-.057-.15-.085-.286-.085-.408 0-.398.165-.696.494-.892.33-.195.864-.321 1.605-.378.883-.055 1.588-.137 2.108-.242zM685.455 392.723c.562-.122.941-.171 1.141-.146.2.024.441.15.727.378.342.277.646.708.909 1.294.265.586.324.965.178 1.136-.204.244-1.274.61-3.211 1.099-.261.065-.494.14-.702.226-.207.085-.327.152-.359.201-.082.146.126.469.622.965s.956.838 1.38 1.025c1.196.537 2.258.334 3.186-.61.398-.415.716-.861.952-1.337.236-.477.342-.897.317-1.264-.008-.228.063-.459.214-.695s.334-.411.549-.525c.216-.113.401-.122.556-.024.13.082.218.226.263.434.045.207.067.56.067 1.056-.009.537-.051.946-.129 1.227-.077.281-.254.642-.53 1.081-.261.415-.417.706-.471.872-.053.167-.026.283.08.349.13.105.089.158-.122.158-.106 0-.3.071-.58.214-.281.143-.563.315-.849.519l-.488.33s-.263.142-.445.207c-.184.065-.334.108-.452.128-.117.021-.319.029-.604.024-.285-.004-.554-.016-.806-.036l-1.136-.104c-.398-.033-.738-.078-1.02-.135-.28-.057-.421-.105-.421-.146 0-.098-.338-.651-1.013-1.66-.439-.675-.723-1.167-.849-1.477s-.21-.736-.25-1.282c-.041-.562-.039-.943.006-1.147.045-.203.189-.447.434-.732.293-.35.708-.675 1.245-.977.537-.305 1.074-.512 1.611-.626zm.964 1.525l-.043-.092-.188-.024-.349.049-.567.129c-.456.105-.744.269-.866.488-.065.13-.033.236.098.317.113.065.459-.031 1.037-.287.577-.257.87-.449.878-.58zm6.263-13.415c.13-.13.207-.135.231-.013.017.082.024.24.024.477 0 .171-.019.313-.055.427-.037.114-.084.171-.141.171-.114 0-.179-.152-.195-.458-.016-.305.029-.506.136-.604z"/></g><g class="letters l-texture" fill="#58595B"><path d="M211.182 81.192c.146-.179.342-.272.586-.281.244-.008.398.073.464.244.057.155.053.973-.012 2.454-.024.464-.039.832-.042 1.104-.004.273.001.497.018.672.016.175.039.291.067.348.029.057.071.082.128.073.447-.008 1.385-.136 2.814-.385 1.428-.248 2.228-.417 2.398-.506.325-.187.653-.175.982.037.33.212.495.513.495.903 0 .171-.1.334-.299.488-.199.155-.415.256-.646.305-.232.049-.446.037-.641-.037-.22-.114-1.072-.104-2.557.03-1.485.135-2.334.283-2.545.446-.09.065-.145.204-.165.415-.021.212-.006.537.042.977.089.806.262 1.849.519 3.131.256 1.281.458 2.077.604 2.386.146.325.15.56.012.702-.139.143-.468.25-.989.324-.391.049-.628.047-.714-.006-.085-.053-.152-.242-.201-.567-.114-.676-.226-1.644-.336-2.905-.109-1.261-.165-2.185-.165-2.771l-.006-.495c-.004-.126-.02-.248-.049-.366l-.091-.262c-.033-.057-.09-.104-.171-.14-.082-.037-.165-.055-.25-.055l-.36.037c-.155.024-.313.059-.476.104l-.623.189c-.952.293-1.579.47-1.88.531-.301.061-.542.059-.72-.006-.146-.057-.22-.122-.22-.195s.065-.24.195-.5c.154-.301.423-.519.806-.653.382-.134 1.143-.287 2.283-.458.61-.089.98-.175 1.111-.256.049-.032.104-.289.165-.769.061-.48.104-1.038.128-1.672.064-1.549.178-2.42.341-2.615zM223.145 86.404c.562-.122.942-.171 1.141-.146.2.024.441.151.727.378.342.277.645.708.909 1.294.265.586.324.964.177 1.135-.204.244-1.274.61-3.21 1.099-.261.065-.494.14-.702.226-.207.085-.328.152-.36.201-.082.146.126.468.623.964.496.497.956.838 1.379 1.025 1.196.537 2.258.334 3.186-.61.398-.415.716-.861.952-1.336.236-.477.342-.897.317-1.264-.008-.228.063-.459.214-.696.15-.236.333-.411.549-.525.216-.114.401-.122.556-.024.13.082.218.226.263.434.044.207.067.56.067 1.056-.008.537-.051.946-.128 1.227-.077.281-.254.641-.531 1.081-.261.415-.417.706-.47.873-.053.167-.026.283.08.348.13.105.089.159-.122.159-.106 0-.299.071-.58.214-.281.142-.564.315-.849.519l-.488.33c-.114.073-.263.142-.445.208-.184.065-.334.108-.452.128-.118.021-.319.029-.604.024-.285-.004-.554-.016-.806-.036l-1.135-.104c-.399-.033-.738-.078-1.02-.134-.28-.057-.421-.106-.421-.146 0-.098-.338-.651-1.013-1.66-.439-.675-.722-1.167-.848-1.477-.126-.309-.21-.736-.25-1.282-.041-.562-.039-.944.006-1.147.044-.203.189-.447.433-.732.293-.35.708-.675 1.245-.977.535-.305 1.072-.512 1.61-.627zm.964 1.526l-.043-.092-.189-.024-.348.049-.567.128c-.456.106-.745.269-.867.488-.065.13-.033.236.098.317.114.065.459-.031 1.038-.287.577-.256.87-.448.878-.579zm6.262-13.415c.13-.13.208-.134.232-.012.016.082.024.24.024.476 0 .171-.019.313-.055.427-.037.114-.084.171-.141.171-.114 0-.179-.152-.195-.458-.016-.305.029-.507.135-.604zM237.854 86.722c.293-.228.492-.352.598-.373.105-.02.24.051.403.214.171.171.244.405.22.702-.024.297-.139.58-.342.848-.244.31-.635 1.05-1.172 2.222-.277.603-.456 1.015-.537 1.239-.082.224-.118.395-.11.513.008.118.069.243.183.373.276.301.527.493.751.574.224.082.449.061.677-.061.333-.179.6-.116.799.189.2.306.222.653.067 1.044-.057.138-.134.269-.232.391-.439.48-1.147.427-2.124-.159-.236-.139-.458-.246-.666-.324-.207-.077-.34-.1-.396-.067-.098.065-.204.305-.317.72-.114.415-.151.696-.11.842.049.203-.078.405-.378.604-.301.2-.631.299-.989.299-.554 0-.851-.165-.891-.495-.041-.329.159-.93.598-1.8.464-.912.696-1.408.696-1.489 0-.081-.2-.417-.598-1.007-.399-.59-.647-.913-.745-.97-.122-.073-.488-.537-1.099-1.392-.317-.447-.525-.757-.623-.928s-.146-.311-.146-.421c0-.109.053-.25.159-.421.081-.122.183-.232.305-.33s.224-.146.305-.146c.081 0 .24.14.476.421.236.28.48.616.732 1.007.358.554.69 1.027.995 1.422.306.395.562.676.77.843.207.167.348.209.421.128.114-.13.317-.556.61-1.275.293-.721.525-1.178.696-1.374s.297-.435.378-.72c.032-.114.112-.254.238-.421.127-.168.259-.308.398-.422zM245.239 81.192c.146-.179.342-.272.586-.281.244-.008.398.073.464.244.057.155.053.973-.012 2.454-.024.464-.039.832-.042 1.104-.004.273.001.497.018.672.016.175.039.291.067.348.029.057.071.082.128.073.447-.008 1.385-.136 2.814-.385 1.428-.248 2.228-.417 2.398-.506.325-.187.653-.175.982.037.33.212.495.513.495.903 0 .171-.1.334-.299.488-.199.155-.415.256-.646.305-.232.049-.446.037-.641-.037-.22-.114-1.072-.104-2.557.03-1.485.135-2.334.283-2.545.446-.09.065-.145.204-.165.415-.021.212-.006.537.042.977.089.806.262 1.849.519 3.131.256 1.281.458 2.077.604 2.386.146.325.15.56.012.702-.139.143-.468.25-.989.324-.391.049-.628.047-.714-.006-.085-.053-.152-.242-.201-.567-.114-.676-.226-1.644-.336-2.905-.109-1.261-.165-2.185-.165-2.771l-.006-.495c-.004-.126-.02-.248-.049-.366l-.091-.262c-.033-.057-.09-.104-.171-.14-.082-.037-.165-.055-.25-.055l-.36.037c-.155.024-.313.059-.476.104l-.623.189c-.952.293-1.579.47-1.88.531-.301.061-.542.059-.72-.006-.146-.057-.22-.122-.22-.195s.065-.24.195-.5c.154-.301.423-.519.806-.653.382-.134 1.143-.287 2.283-.458.61-.089.98-.175 1.111-.256.049-.032.104-.289.165-.769.061-.48.104-1.038.128-1.672.064-1.549.178-2.42.341-2.615zM254.102 87.686c.228-.342.496-.502.806-.482.309.021.541.218.696.592.163.391.208.68.134.867-.106.277-.024.747.244 1.41.269.663.578 1.146.928 1.446.398.35.781.543 1.147.58.366.036.777-.083 1.233-.36.472-.285.804-.596.995-.934.191-.338.217-.661.079-.971-.155-.382-.218-.72-.189-1.013.029-.293.151-.513.366-.659.216-.146.482-.171.8-.073.293.098.533.368.72.812.187.443.244.869.171 1.275-.09.423-.36.883-.812 1.379-.451.497-.999.934-1.642 1.312-.643.379-1.257.625-1.843.739-.847.154-1.634-.181-2.362-1.007-.729-.826-1.26-1.987-1.593-3.485-.09-.391-.126-.673-.11-.848.016-.175.093-.368.232-.58zM267.371 87.247c.407-.138.655-.209.745-.214.089-.004.167.047.232.153.187.31-.11.708-.891 1.196-.488.301-.979.745-1.471 1.331-.493.586-.824 1.119-.995 1.599-.171.48-.261 1.058-.269 1.733-.008.48-.043.788-.104.921-.062.135-.234.275-.519.421-.472.252-.788.315-.946.189-.159-.126-.202-.47-.128-1.031.089-.618.189-1.715.299-3.29.109-1.574.171-2.378.183-2.411.013-.032.157-.049.434-.049.13 0 .224.022.281.067.057.045.069.108.037.189-.024.065-.024.179 0 .342.024.163.069.322.134.476l.244.574.391-.671c.195-.325.478-.608.848-.848s.868-.466 1.495-.677zM272.473 86.404c.562-.122.942-.171 1.141-.146.2.024.441.151.727.378.342.277.645.708.909 1.294.265.586.324.964.177 1.135-.204.244-1.274.61-3.21 1.099-.261.065-.494.14-.702.226-.207.085-.328.152-.36.201-.082.146.126.468.623.964.496.497.956.838 1.379 1.025 1.196.537 2.258.334 3.186-.61.398-.415.716-.861.952-1.336.236-.477.342-.897.317-1.264-.008-.228.063-.459.214-.696.15-.236.333-.411.549-.525.216-.114.401-.122.556-.024.13.082.218.226.263.434.044.207.067.56.067 1.056-.008.537-.051.946-.128 1.227-.077.281-.254.641-.531 1.081-.261.415-.417.706-.47.873-.053.167-.026.283.08.348.13.105.089.159-.122.159-.106 0-.299.071-.58.214-.281.142-.564.315-.849.519l-.488.33c-.114.073-.263.142-.445.208-.184.065-.334.108-.452.128-.118.021-.319.029-.604.024-.285-.004-.554-.016-.806-.036l-1.135-.104c-.399-.033-.738-.078-1.02-.134-.28-.057-.421-.106-.421-.146 0-.098-.338-.651-1.013-1.66-.439-.675-.722-1.167-.848-1.477-.126-.309-.21-.736-.25-1.282-.041-.562-.039-.944.006-1.147.044-.203.189-.447.433-.732.293-.35.708-.675 1.245-.977.536-.305 1.073-.512 1.61-.627zm.965 1.526l-.043-.092-.189-.024-.348.049-.567.128c-.456.106-.745.269-.867.488-.065.13-.033.236.098.317.114.065.459-.031 1.038-.287.576-.256.869-.448.878-.579zm6.262-13.415c.13-.13.208-.134.232-.012.016.082.024.24.024.476 0 .171-.019.313-.055.427-.037.114-.084.171-.141.171-.114 0-.179-.152-.195-.458-.016-.305.029-.507.135-.604z"/></g><g class="letters l-space" fill="#58595B"><path d="M33.008 188.797c.342-.098.75-.12 1.227-.067.476.053.726.148.75.287.024.163-.346.446-1.111.848-.765.403-1.624.771-2.576 1.105-.725.252-1.27.464-1.636.635l-.549.256 1.086.452c.732.301 1.444.542 2.136.72.691.188 1.39.466 2.094.836.704.371 1.149.698 1.336.983.171.269.226.542.165.818-.061.277-.222.483-.482.622-.391.212-.999.364-1.825.458-.826.094-1.63.107-2.411.043-.781-.065-1.311-.2-1.587-.403-.326-.236-.322-.406.012-.512.309-.098.989-.175 2.039-.232 1.359-.065 2.079-.138 2.161-.22.138-.146-.061-.35-.598-.61-.472-.228-1.225-.513-2.258-.854-1.107-.358-1.918-.651-2.435-.879-.517-.228-.877-.445-1.081-.653-.204-.207-.305-.461-.305-.763 0-.293.032-.484.098-.574.065-.089.211-.159.439-.208.366-.073.736-.206 1.111-.396.374-.191.633-.287.775-.287.143 0 .482-.122 1.02-.366 1.294-.595 2.096-.941 2.405-1.039zM37.647 190.47c.358-.187.645-.258.861-.214.215.045.604.247 1.166.604.545.35 1.033.747 1.465 1.19.431.443.655.787.671 1.031l.073.513c.032.269-.083.604-.348 1.007-.265.403-.615.775-1.05 1.117-.436.342-.857.569-1.264.684-.358.105-.615.231-.769.378-.155.146-.262.364-.324.653-.061.289-.091.742-.091 1.361 0 .984.059 1.666.177 2.045.118.378.315.53.592.457.358-.09.541.045.549.403.008.269-.094.614-.305 1.037-.188.383-.342.623-.464.721s-.338.146-.647.146c-.195 0-.356-.019-.482-.055-.126-.037-.24-.118-.342-.244-.102-.127-.179-.281-.232-.464-.053-.184-.096-.456-.128-.818-.033-.362-.053-.761-.061-1.196-.008-.436-.012-1.003-.012-1.703.008-2.205.089-4.158.244-5.859l.098-1.038.085-.702c.032-.231.061-.392.085-.482l.11-.275.14-.189.203-.108zm2.27 2.71c-.082-.26-.313-.5-.696-.72-.358-.203-.578-.228-.659-.073l-.012.024c-.033.106-.073.366-.122.781s-.085.808-.11 1.178c-.024.37-.024.555 0 .555.041 0 .256-.065.647-.195.358-.122.63-.335.818-.641.187-.305.232-.608.134-.909zM50.135 189.591c.065-.105.24-.124.525-.055.285.069.517.185.696.348.105.098.157.238.152.421-.004.184-.071.511-.201.983-.179.692-.24 1.379-.183 2.063.057.684.22 1.262.488 1.733.105.179.195.371.269.574.073.204.11.354.11.452 0 .235-.122.427-.366.573s-.527.212-.849.195c-.321-.017-.588-.118-.799-.305-.13-.122-.222-.291-.275-.507-.053-.215-.079-.539-.079-.97 0-.765-.037-1.147-.11-1.147s-.326.195-.757.586c-.603.545-1.363 1.095-2.283 1.648-.92.553-1.624.883-2.112.988-.366.081-.704.051-1.013-.091-.31-.143-.525-.365-.647-.666s-.118-.618.012-.952c.13-.35.663-.956 1.599-1.819.936-.862 1.931-1.676 2.985-2.441 1.054-.765 1.788-1.2 2.203-1.306.138-.032.271-.08.396-.14.127-.062.206-.116.239-.165zm-1.099 2.759c0-.22-.049-.33-.146-.33-.13.008-.606.297-1.428.867-.423.285-.875.637-1.355 1.056-.48.419-.871.796-1.172 1.129-.301.334-.423.529-.366.586.073.073.378-.037.916-.33s.984-.586 1.343-.879c.391-.333.647-.5.769-.5.171 0 .454-.22.849-.659.393-.44.59-.753.59-.94zM55.115 189.847c.626-.626 1.052-1.013 1.275-1.16.224-.146.466-.199.727-.159.513.09.846.34 1.001.75.154.411.077.836-.232 1.276-.122.171-.242.281-.36.33-.118.049-.279.053-.482.012-.212-.049-.405-.028-.58.061-.175.09-.429.293-.763.61-.358.342-.688.763-.989 1.264-.301.5-.452.873-.452 1.117 0 .033.044.087.134.165.089.078.199.149.33.214.187.098.389.146.604.146.215 0 .555-.044 1.019-.134.48-.105 1.19-.37 2.13-.793.939-.423 1.804-.865 2.594-1.324.789-.46 1.229-.783 1.318-.971.154-.333.368-.527.641-.58.273-.053.515.055.727.324.236.285.354.5.354.647 0 .204-.555.637-1.667 1.3-1.11.664-2.321 1.298-3.631 1.904-1.311.606-2.218.938-2.722.995-1.392.171-2.368-.049-2.93-.659-.505-.537-.582-1.282-.232-2.234.351-.952 1.079-1.986 2.186-3.101zM68.177 189.408c.562-.122.942-.171 1.141-.146.2.024.441.151.727.378.342.277.645.708.909 1.294.265.586.324.964.177 1.135-.204.244-1.274.61-3.21 1.099-.261.065-.494.14-.702.226-.207.085-.328.152-.36.201-.082.146.126.468.623.964.496.497.956.838 1.379 1.025 1.196.537 2.258.334 3.186-.61.398-.415.716-.861.952-1.336.236-.477.342-.897.317-1.264-.008-.228.063-.459.214-.696.15-.236.333-.411.549-.525.216-.114.401-.122.556-.024.13.082.218.226.263.434.044.207.067.56.067 1.056-.008.537-.051.946-.128 1.227-.077.281-.254.641-.531 1.081-.261.415-.417.706-.47.873-.053.167-.026.283.08.348.13.105.089.159-.122.159-.106 0-.299.071-.58.214-.281.142-.564.314-.849.519l-.488.329c-.114.073-.263.143-.445.208-.184.064-.334.107-.452.128-.118.021-.319.028-.604.024s-.554-.017-.806-.036l-1.135-.104c-.399-.032-.738-.077-1.02-.134-.28-.058-.421-.106-.421-.146 0-.098-.338-.651-1.013-1.66-.439-.675-.722-1.167-.848-1.477-.126-.309-.21-.736-.25-1.282-.041-.562-.039-.944.006-1.147.044-.203.189-.447.433-.732.293-.35.708-.675 1.245-.977.536-.305 1.073-.512 1.61-.626zm.964 1.526l-.043-.092-.189-.024-.348.049-.567.128c-.456.106-.745.269-.867.488-.065.13-.033.236.098.317.114.065.459-.031 1.038-.287.577-.256.87-.449.878-.579zm6.262-13.416c.13-.13.208-.134.232-.012.016.082.024.24.024.476 0 .171-.019.313-.055.427-.037.114-.084.171-.141.171-.114 0-.179-.152-.195-.458-.016-.305.029-.506.135-.604z"/></g><path class="an2 l-value" fill="none" stroke="#EE2A7B" stroke-width=".5" stroke-miterlimit="10" d="M184.165 380.834v-78h-30.666"/><path class="an2 l-shape" fill="none" stroke="#EE2A7B" stroke-width=".5" stroke-miterlimit="10" d="M433.499 89.501l29 66"/><path class="an2 l-space" fill="none" stroke="#EE2A7B" stroke-width=".5" stroke-miterlimit="10" d="M81.606 192.085h117.994"/><circle class="an3 l-space" fill="#EE2A7B" cx="199.6" cy="192.085" r="2.033"/><circle class="an3 l-size" fill="#EE2A7B" cx="647" cy="329.5" r="2.033"/><circle class="an3 l-value" fill="#EE2A7B" cx="154.333" cy="302.967" r="2.033"/><circle class="an3 l-shape" fill="#EE2A7B" cx="462.499" cy="155.501" r="2.033"/><path class="an2 l-size" fill="none" stroke="#EE2A7B" stroke-width=".5" stroke-miterlimit="10" d="M674.41 376.252l-27.41-46.752"/><path class="an2 l-colors" fill="none" stroke="#EE2A7B" stroke-width=".5" stroke-miterlimit="10" d="M464.499 413.501v-80h-17"/><circle class="an3 l-colors" fill="#EE2A7B" cx="447.588" cy="333.554" r="2.033"/><circle class="an3 l-line" fill="#EE2A7B" cx="619.483" cy="129" r="2.033"/><path class="an2 l-line" fill="none" stroke="#EE2A7B" stroke-width=".5" stroke-miterlimit="10" d="M619.483 53.601v73.399"/><circle class="an3 l-texture" fill="#EE2A7B" cx="242.199" cy="233.333" r="2.033"/><path class="an2 l-texture" fill="none" stroke="#EE2A7B" stroke-width=".5" stroke-miterlimit="10" d="M242.199 104.598v128.994"/></svg>