<svg xmlns="http://www.w3.org/2000/svg" viewBox="0 0 792 612" enable-background="new 0 0 792 612"><defs><style type="text/css"><![CDATA[
.letters {
	opacity: 0;
	-webkit-animation: fade 4s ease forwards;
  animation: fade 4s ease forwards;
} 
.an2 {
  stroke-dasharray: 100%;
  stroke-dashoffset: 100%;
  -webkit-animation: dash 8s ease forwards;
  animation: dash 8s ease forwards;
}
.an3 {
	opacity: 0;
	-webkit-animation: surge 2s ease forwards;
  animation: surge 2s ease forwards;
}

.letters.l-beach {
	-webkit-animation-delay: 0s;
	animation-delay: 0s;
}
.an2.l-beach {
	-webkit-animation-delay: 2s;
	animation-delay: 2s;
}
.an3.l-beach {
	-webkit-animation-delay: 4s;
	animation-delay: 4s;
}
.letters.l-star {
	-webkit-animation-delay: 1s;
	animation-delay: 1s;
}
.an2.l-star {
	-webkit-animation-delay: 3s;
	animation-delay: 3s;
}
.an3.l-star {
	-webkit-animation-delay: 5s;
	animation-delay: 5s;
}
.letters.l-shutter {
	-webkit-animation-delay: 3s;
	animation-delay: 3s;
}
.an2.l-shutter {
	-webkit-animation-delay: 5s;
	animation-delay: 5s;
}
.an3.l-shutter {
	-webkit-animation-delay: 7s;
	animation-delay: 7s;
}
.letters.l-bi {
	-webkit-animation-delay: 2s;
	animation-delay: 2s;
}
.an2.l-bi {
	-webkit-animation-delay: 4s;
	animation-delay: 4s;
}
.an3.l-bi {
	-webkit-animation-delay: 6s;
	animation-delay: 6s;
}
.letters.l-choc {
	-webkit-animation-delay: 4s;
	animation-delay: 4s;
}
.an2.l-choc {
	-webkit-animation-delay: 3s;
	animation-delay: 3s;
}
.an3.l-choc {
	-webkit-animation-delay: 5s;
	animation-delay: 5s;
}

@-webkit-keyframes dash {
  to { stroke-dashoffset: 0%; }
}
@keyframes dash {
  to { stroke-dashoffset: 0%; }
}

@-webkit-keyframes fade {
  to { opacity: 1; }
}
@keyframes fade {
  to { opacity: 1; }
}

@-webkit-keyframes surge {
  0%   { opacity: 0; }
  50%  { opacity: 1; }
  80%  { opacity: .5; }
  100% { opacity: 1; }
}

]]></style></defs><path class="an2 l-star" fill="none" stroke="#EE2A7B" stroke-width=".5" stroke-miterlimit="10" d="M424.412 110.772v77.329"/><circle class="an3 l-star" fill="#EE2A7B" cx="424.412" cy="188.101" r="2.774"/><g class="letters l-star" fill="#58595B"><path d="M367.023 59.77c.588-.145 1.607-.184 3.057-.117 1.449.066 2.434.194 2.956.383.455.167.924.486 1.407.958s.725.847.725 1.124c0 .211-.12.45-.358.716-.239.267-.536.5-.891.699-.089.056-.253.011-.491-.133-.239-.145-.492-.35-.758-.616-.411-.411-.752-.672-1.024-.783-.272-.111-.714-.172-1.324-.183-1.299-.033-2.404-.019-3.314.042-.911.062-1.427.147-1.549.258-.178.178-.466.267-.866.267-.155 0-.353.05-.591.15s-.447.222-.625.366l-.616.517.916.966c.71.733 1.474 1.355 2.29 1.865.816.511 1.885 1.039 3.207 1.583 1.354.566 2.292 1.052 2.814 1.457.522.406.777.853.766 1.341 0 .766-.377 1.349-1.132 1.749-.755.399-1.977.666-3.664.799-1.055.089-1.841.061-2.357-.083-.516-.144-.919-.45-1.208-.916-.145-.222-.178-.455-.1-.699s.228-.433.45-.566.466-.214.733-.242c.267-.027.517.059.75.258.233.123.616.186 1.149.191.533.006 1.077-.047 1.632-.158.555-.111.833-.238.833-.383 0-.089-.281-.308-.841-.658-.561-.35-1.224-.719-1.99-1.108-3.165-1.621-5.224-3.159-6.179-4.613-.777-1.166-.667-2.076.333-2.731.289-.189.799-.389 1.532-.6s2.174-.578 4.328-1.1zM383.029 55.373c.2-.244.466-.372.799-.383.333-.011.544.1.633.333.078.211.072 1.327-.017 3.348-.033.633-.053 1.136-.059 1.507-.005.372.003.678.025.916.022.239.052.397.091.475.039.078.097.111.175.1.611-.011 1.891-.186 3.839-.524s3.04-.569 3.272-.691c.444-.255.891-.239 1.341.05.45.289.675.7.675 1.233 0 .233-.136.455-.408.666-.272.211-.566.35-.883.417-.316.066-.608.05-.875-.05-.3-.155-1.463-.142-3.489.042-2.026.183-3.184.386-3.473.608-.122.089-.197.277-.225.566-.028.289-.008.733.058 1.333.122 1.099.358 2.523.708 4.272s.625 2.834.824 3.256c.2.444.206.763.017.958-.188.194-.638.341-1.349.441-.533.066-.858.064-.975-.008s-.208-.331-.275-.774c-.155-.922-.308-2.243-.458-3.964s-.225-2.981-.225-3.781l-.008-.675c-.006-.172-.028-.338-.067-.5-.039-.161-.081-.28-.125-.358-.045-.078-.123-.142-.233-.192-.111-.05-.225-.075-.341-.075s-.281.017-.491.05c-.211.034-.428.081-.65.142-.222.061-.505.147-.849.258-1.299.4-2.154.641-2.565.725-.411.083-.739.081-.983-.008-.2-.078-.3-.167-.3-.267s.089-.328.267-.683c.211-.411.577-.708 1.099-.891.522-.184 1.56-.392 3.115-.625.833-.122 1.338-.238 1.516-.35.066-.044.142-.394.225-1.049.083-.655.142-1.416.175-2.282.091-2.112.246-3.3.469-3.566zM405.062 62.734c.09-.144.328-.169.717-.075s.705.252.949.475c.145.133.215.325.209.575-.006.25-.098.697-.275 1.34-.244.944-.328 1.882-.25 2.815s.301 1.721.666 2.365c.145.244.268.505.367.783s.15.483.15.616c0 .322-.168.583-.5.783-.334.2-.719.289-1.158.267-.438-.022-.803-.161-1.09-.417-.178-.167-.303-.397-.375-.691-.072-.294-.109-.735-.109-1.324 0-1.044-.049-1.566-.148-1.566-.102 0-.445.267-1.033.8-.822.744-1.859 1.493-3.115 2.248-1.254.755-2.215 1.205-2.881 1.349-.5.111-.961.069-1.382-.125-.422-.195-.716-.497-.883-.908s-.161-.844.017-1.299c.178-.477.905-1.305 2.182-2.481s2.635-2.288 4.072-3.331c1.438-1.044 2.439-1.638 3.006-1.782.189-.044.369-.108.541-.191.171-.085.281-.159.323-.226zm-1.498 3.764c0-.3-.066-.45-.199-.45-.178.011-.828.405-1.949 1.183-.578.389-1.193.869-1.85 1.44-.654.572-1.188 1.085-1.598 1.541-.412.456-.578.722-.5.8.1.1.516-.05 1.25-.45.732-.4 1.342-.8 1.832-1.199.531-.455.881-.683 1.049-.683.232 0 .619-.3 1.156-.899.54-.6.809-1.028.809-1.283zM414.573 63.633c.556-.188.894-.286 1.017-.292.122-.005.228.064.316.208.255.422-.15.966-1.216 1.632-.666.411-1.336 1.016-2.007 1.815-.672.8-1.125 1.527-1.357 2.182-.233.655-.355 1.443-.367 2.365-.011.655-.058 1.074-.142 1.258-.083.183-.319.375-.707.574-.645.344-1.074.43-1.291.258-.217-.172-.275-.641-.175-1.407.122-.844.258-2.34.408-4.489.149-2.148.232-3.245.249-3.29.018-.044.214-.066.592-.066.178 0 .306.031.383.092.078.061.095.147.05.258-.033.089-.033.245 0 .466.033.223.095.439.184.65l.333.783.533-.916c.267-.444.652-.83 1.157-1.158.505-.326 1.186-.634 2.04-.923zM446.668 55.706c.355-.344.747-.511 1.174-.5.428.011.809.206 1.142.583.466.511.707 1 .725 1.466.017.466-.192 1-.625 1.599-.411.577-.839 1.632-1.282 3.164-.444 1.533-.789 3.118-1.033 4.755s-.316 2.878-.216 3.722c.066.566.08.966.041 1.199-.039.233-.164.444-.374.633-.444.411-.925.502-1.441.275-.516-.228-1.308-.875-2.373-1.94-1.277-1.288-2.504-2.37-3.681-3.248-1.177-.877-1.949-1.288-2.315-1.232-.199.022-.464.275-.791.758s-.797 1.313-1.407 2.49c-.444.866-.872 1.638-1.282 2.315-.411.677-.684 1.049-.816 1.116-.355.2-.744.213-1.166.042-.422-.172-.711-.458-.866-.857-.188-.478-.366-.877-.532-1.199l-1.699-3.331c-.966-1.91-1.627-3.131-1.982-3.664-.466-.688-.633-1.258-.499-1.708.133-.45.561-.769 1.282-.958.478-.111.886.044 1.225.466.338.422.613 1.127.824 2.115.089.444.211.891.366 1.341s.3.774.433.974c.322.466.628 1.016.916 1.649.111.245.25.494.417.75.166.255.305.433.416.533.178.144.322.191.434.141.11-.05.277-.235.499-.558.4-.555.771-1.193 1.116-1.916.344-.722.566-1.327.666-1.815.145-.633.455-1.166.933-1.599s.933-.594 1.366-.483c.344.089.654.233.933.433.277.2.854.694 1.731 1.482 1.066.955 2.204 1.868 3.415 2.74 1.21.872 1.87 1.252 1.981 1.141.167-.167.378-.975.633-2.423.256-1.449.517-2.756.783-3.922.11-.488.205-1.11.283-1.865.077-.755.116-1.421.116-1.999 0-.888.033-1.499.101-1.832.063-.334.206-.611.429-.833zM460.975 62.734c.089-.144.328-.169.717-.075s.705.252.949.475c.145.133.214.325.208.575-.006.25-.098.697-.274 1.34-.245.944-.328 1.882-.25 2.815.077.933.3 1.721.666 2.365.145.244.267.505.366.783.101.277.15.483.15.616 0 .322-.167.583-.5.783s-.719.289-1.157.267c-.438-.022-.803-.161-1.091-.417-.178-.167-.303-.397-.375-.691-.072-.294-.108-.735-.108-1.324 0-1.044-.05-1.566-.149-1.566-.101 0-.444.267-1.033.8-.821.744-1.859 1.493-3.114 2.248-1.255.755-2.215 1.205-2.882 1.349-.499.111-.96.069-1.382-.125-.422-.195-.716-.497-.883-.908s-.161-.844.017-1.299c.178-.477.905-1.305 2.182-2.481 1.277-1.177 2.635-2.288 4.072-3.331 1.438-1.044 2.44-1.638 3.007-1.782.188-.044.368-.108.541-.191.17-.085.279-.159.323-.226zm-1.498 3.764c0-.3-.067-.45-.2-.45-.178.011-.827.405-1.949 1.183-.577.389-1.193.869-1.849 1.44-.655.572-1.188 1.085-1.599 1.541-.411.456-.577.722-.5.8.101.1.517-.05 1.25-.45.732-.4 1.343-.8 1.832-1.199.532-.455.882-.683 1.049-.683.233 0 .619-.3 1.157-.899.539-.6.809-1.028.809-1.283zM470.484 63.633c.556-.188.894-.286 1.017-.292.122-.005.228.064.316.208.255.422-.15.966-1.216 1.632-.666.411-1.336 1.016-2.007 1.815-.672.8-1.125 1.527-1.357 2.182-.233.655-.355 1.443-.367 2.365-.011.655-.058 1.074-.142 1.258-.083.183-.319.375-.707.574-.645.344-1.074.43-1.291.258-.217-.172-.275-.641-.175-1.407.122-.844.258-2.34.408-4.489.149-2.148.232-3.245.249-3.29.018-.044.214-.066.592-.066.178 0 .306.031.383.092.078.061.095.147.05.258-.033.089-.033.245 0 .466.033.223.095.439.184.65l.333.783.533-.916c.267-.444.652-.83 1.157-1.158.505-.326 1.186-.634 2.04-.923zM480.878 61.651c.466-.133 1.024-.164 1.674-.092.649.073.991.203 1.024.392.033.222-.473.608-1.516 1.158-1.044.549-2.215 1.052-3.515 1.507-.988.344-1.731.633-2.231.866l-.75.35 1.482.616c1 .411 1.971.738 2.915.982.943.255 1.896.636 2.856 1.141s1.568.952 1.823 1.34c.233.367.309.739.226 1.116-.084.377-.303.66-.658.849-.533.289-1.363.497-2.49.625-1.127.127-2.224.147-3.289.058-1.066-.089-1.788-.272-2.165-.55-.444-.322-.439-.555.017-.699.422-.133 1.349-.239 2.781-.316 1.854-.089 2.837-.189 2.948-.3.188-.2-.084-.478-.816-.833-.645-.311-1.671-.699-3.081-1.166-1.511-.488-2.618-.888-3.323-1.199-.705-.311-1.196-.608-1.474-.891s-.416-.63-.416-1.041c0-.4.044-.661.133-.783s.289-.217.6-.283c.5-.1 1.005-.28 1.516-.542.511-.261.863-.391 1.058-.391s.658-.167 1.391-.5c1.764-.808 2.858-1.28 3.28-1.414z"/></g><g class="letters l-star" fill="#58595B"><path d="M407.212 83.079c.565-.388.968-.569 1.207-.541.238.028.569.286.991.774l.699.833 3.765-.116c2.509-.078 3.872-.225 4.089-.441.216-.217.508-.311.874-.283s.691.169.975.425.443.633.482 1.132-.069.85-.324 1.049c-.233.189-1.943.25-5.13.183-1.999-.033-3.304-.033-3.914 0-.611.033-.949.133-1.016.3-.101.256-.09.978.033 2.166.1.944.205 1.477.316 1.599.077.089.271.105.583.05.321-.055 1.124-.252 2.406-.591 1.282-.338 2.423-.652 3.423-.941 1.088-.322 1.84-.513 2.257-.575.416-.061.746-.025.99.108.345.178.583.375.717.591.133.217.2.514.2.891 0 .389-.256.683-.767.883-.511.2-1.332.322-2.465.366-.855.033-1.974.228-3.356.583s-2.429.716-3.14 1.083c-.288.145-.485.3-.591.466s-.158.4-.158.7c0 .211.025.411.075.6s.113.306.191.35c.211.133.297.589.258 1.366-.039.777-.175 1.333-.408 1.666-.277.4-.636.597-1.074.591-.438-.006-.785-.214-1.041-.625-.166-.255-.255-.486-.266-.691-.012-.206.05-.514.183-.924.111-.388.167-.955.167-1.699 0-.744-.067-1.921-.2-3.531-.178-2.254-.333-3.592-.467-4.014-.1-.3-.311-.6-.633-.899l-.05-.05c-.544-.5-.805-.997-.782-1.491.023-.496.323-.943.901-1.343zM432.095 87.292c.089-.144.328-.169.717-.075s.705.252.949.475c.145.133.214.325.208.575-.006.25-.098.697-.274 1.34-.245.944-.328 1.882-.25 2.815.077.933.3 1.721.666 2.365.145.244.267.505.366.783.101.277.15.483.15.616 0 .322-.167.583-.5.783s-.719.289-1.157.267c-.438-.022-.803-.161-1.091-.417-.178-.167-.303-.397-.375-.691-.072-.294-.108-.735-.108-1.324 0-1.044-.05-1.566-.149-1.566-.101 0-.444.267-1.033.8-.821.744-1.859 1.493-3.114 2.248-1.255.755-2.215 1.205-2.882 1.349-.499.111-.96.069-1.382-.125-.422-.195-.716-.497-.883-.908s-.161-.844.017-1.299c.178-.477.905-1.305 2.182-2.481 1.277-1.177 2.635-2.288 4.072-3.331 1.438-1.044 2.44-1.638 3.007-1.782.188-.044.368-.108.541-.191.17-.084.279-.159.323-.226zm-1.498 3.765c0-.3-.067-.45-.2-.45-.178.011-.827.405-1.949 1.183-.577.389-1.193.869-1.849 1.44-.655.572-1.188 1.085-1.599 1.541-.411.456-.577.722-.5.8.101.1.517-.05 1.25-.45.732-.4 1.343-.8 1.832-1.199.532-.455.882-.683 1.049-.683.233 0 .619-.3 1.157-.899.539-.601.809-1.028.809-1.283zM436.774 90.19c.278-.088.475-.142.592-.158.116-.017.369.136.758.458.277.222.433.425.466.608.034.183-.017.586-.149 1.208-.189.889-.345 1.482-.467 1.782-.145.4-.133.555.033.466.256-.122.711-.644 1.366-1.565.622-.866 1.36-1.585 2.215-2.157.855-.571 1.532-.796 2.032-.674.389.1.818.458 1.291 1.074.472.616.812 1.269 1.024 1.957.088.3.213.605.374.916.161.311.309.527.441.649.345.3.503.619.475.958-.027.339-.235.641-.624.908-.355.222-.733.305-1.133.25s-.761-.244-1.082-.566c-.101-.1-.217-.336-.351-.708-.133-.372-.249-.774-.35-1.208-.211-.921-.458-1.443-.741-1.565s-.741.094-1.374.649c-.511.456-1.121 1.33-1.832 2.623s-1.065 2.179-1.065 2.657c0 .444-.239.81-.717 1.099-.478.289-.922.338-1.332.15-.355-.156-.639-.525-.85-1.107-.211-.583-.217-1.002-.017-1.258.066-.089.105-.233.116-.433.012-.2-.008-.399-.058-.599-.05-.2-.059-.644-.025-1.333s.101-1.416.2-2.182c.133-1.043.258-1.776.375-2.198.118-.423.254-.656.409-.701z"/></g><path class="an2 l-bi" fill="none" stroke="#EE2A7B" stroke-width=".5" stroke-miterlimit="10" d="M275.679 160.975l61.288 61.288"/><circle class="an3 l-bi" fill="#EE2A7B" cx="336.967" cy="222.263" r="2.774"/><g class="letters l-bi" fill="#58595B"><path d="M212.825 136.005c1.465-.233 2.64-.152 3.522.242s1.324 1.035 1.324 1.923c0 .522-.116.997-.35 1.424-.233.427-.688.991-1.366 1.69l-1.099 1.149.933-.05c.633-.033 1.493.017 2.582.15.688.089 1.193.203 1.516.341.322.139.688.403 1.099.792.744.722 1.069 1.396.975 2.023-.095.627-.647 1.402-1.657 2.323-.833.766-1.724 1.363-2.673 1.791-.949.428-2.19.802-3.722 1.124-.444.089-.836-.047-1.174-.408-.339-.361-.453-.758-.341-1.191.066-.267.266-.527.6-.783.333-.255.677-.427 1.032-.517.355-.088.667-.083.933.017.399.211.943.181 1.632-.091s1.382-.725 2.082-1.357c.488-.444.794-.786.916-1.024s.1-.441-.066-.608-.522-.344-1.066-.533c-.489-.167-1.513-.203-3.073-.108s-2.839.27-3.839.524l-1.399.367-.033 1.333c-.044 1.455-.039 2.412.017 2.873.055.46.205.78.45.958.21.167.316.325.316.475s-.111.514-.333 1.091c-.2.511-.373.841-.517.991-.145.15-.372.225-.683.225-.478 0-.794-.128-.95-.383-.255-.389-.372-1.527-.35-3.415 0-.777.028-1.982.083-3.614.1-3.364.1-5.379 0-6.045-.078-.578-.278-.894-.6-.95-.145-.033-.406-.017-.783.05-.611.111-1.049.056-1.316-.167-.245-.188-.377-.535-.4-1.041s.083-.847.316-1.024c.1-.078.469-.15 1.108-.217.638-.066 1.368-.105 2.19-.116 1.976-.023 3.364-.1 4.164-.234zm1.999 2.016c-.267-.111-.825-.158-1.674-.142-.85.017-1.447.081-1.791.192-.156.044-.294.125-.417.241-.122.117-.2.231-.233.342-.233.91-.386 1.56-.458 1.948-.073.389-.108.744-.108 1.066 0 .611.255.839.766.683.488-.144 1.31-.661 2.465-1.549 1.933-1.488 2.416-2.415 1.45-2.781zM223.451 139.42c.178-.122.436-.13.774-.025.339.106.608.281.808.525.177.2.347.822.508 1.865.161 1.044.292 2.349.392 3.914.033.511.103 1.005.208 1.482s.219.805.341.982c.289.456.322.93.1 1.424s-.594.774-1.116.841c-.511.056-.889-.208-1.133-.791s-.417-1.657-.516-3.223c-.056-.71-.139-1.452-.25-2.224-.111-.771-.222-1.346-.333-1.724-.2-.677-.281-1.31-.242-1.899.04-.587.193-.969.459-1.147zm1.266-6.146c.311-.311.549-.472.716-.483.167-.011.428.128.783.417.477.377.854.999 1.132 1.865.255.789.255 1.255 0 1.399l-.133.033c-.189 0-.652-.122-1.391-.366s-1.18-.422-1.324-.533c-.255-.188-.358-.549-.308-1.083.05-.533.225-.949.525-1.249zM228.98 137.621c.189-.233.472-.339.85-.316s.71.172 1 .45c.21.189.344.483.399.882.056.4.083 1.222.083 2.465 0 1.932.136 3.417.408 4.455.272 1.039.486 2.501.642 4.389.066.777.167 1.562.3 2.357.133.793.255 1.357.366 1.69.355 1.021.394 1.688.117 1.999-.256.289-.655.133-1.199-.466-.4-.433-.786-1.532-1.158-3.298s-.78-4.43-1.224-7.995c-.111-.866-.244-1.707-.399-2.523-.156-.816-.289-1.363-.4-1.641-.401-.944-.328-1.759.215-2.448zM234.776 139.42c.178-.122.436-.13.774-.025.339.106.608.281.808.525.177.2.347.822.508 1.865.161 1.044.292 2.349.392 3.914.033.511.103 1.005.208 1.482s.219.805.341.982c.289.456.322.93.1 1.424s-.594.774-1.116.841c-.511.056-.889-.208-1.133-.791s-.417-1.657-.516-3.223c-.056-.71-.139-1.452-.25-2.224-.111-.771-.222-1.346-.333-1.724-.2-.677-.281-1.31-.242-1.899.04-.587.193-.969.459-1.147zm1.266-6.146c.311-.311.549-.472.716-.483.167-.011.428.128.783.417.477.377.854.999 1.132 1.865.255.789.255 1.255 0 1.399l-.133.033c-.189 0-.652-.122-1.391-.366s-1.18-.422-1.324-.533c-.255-.188-.358-.549-.308-1.083.051-.533.226-.949.525-1.249zM240.989 145.282c.277-.088.475-.142.591-.158s.369.136.758.458c.277.222.433.425.466.608s-.017.586-.15 1.208c-.189.889-.344 1.482-.466 1.782-.145.4-.133.555.033.466.255-.122.71-.644 1.366-1.565.622-.866 1.36-1.585 2.215-2.157.854-.571 1.532-.796 2.032-.674.389.1.819.458 1.291 1.074.472.616.813 1.269 1.024 1.957.089.3.214.605.375.916.161.311.308.527.441.649.344.3.502.619.475.958-.028.339-.236.641-.625.908-.355.222-.733.305-1.133.25-.399-.056-.761-.244-1.083-.566-.1-.1-.216-.336-.35-.708s-.25-.774-.35-1.208c-.211-.921-.458-1.443-.741-1.565-.283-.122-.741.094-1.375.649-.511.456-1.122 1.33-1.832 2.623s-1.066 2.179-1.066 2.657c0 .444-.239.81-.716 1.099-.478.289-.922.338-1.333.15-.355-.156-.639-.525-.85-1.107-.211-.583-.216-1.002-.017-1.258.067-.089.105-.233.117-.433.011-.2-.008-.399-.058-.599-.05-.2-.059-.644-.025-1.333.034-.688.1-1.416.2-2.182.133-1.043.258-1.776.375-2.198s.255-.656.411-.701zM256.877 143.45c.644-.3 1.263-.458 1.857-.475.594-.017 1.002.108 1.224.375.089.111.205.206.35.283.144.078.267.117.367.117.222 0 .43.175.625.525.194.35.292.73.292 1.141 0 .178.03.364.091.558s.136.336.225.425c.21.211.255.38.133.508-.123.128-.289.081-.5-.142-.133-.122-.252-.177-.358-.167-.106.011-.242.094-.408.25-.2.178-.319.569-.358 1.174-.039.605-.031 1.99.025 4.156.044 1.743.039 3.159-.017 4.247s-.181 1.979-.375 2.673-.452 1.177-.774 1.449-.744.408-1.266.408c-.5 0-.905.083-1.216.25-.189.1-.561.011-1.116-.267-.556-.277-1.08-.625-1.574-1.041-.494-.417-.758-.752-.791-1.008-.044-.267-.017-.422.083-.466.1-.044.383-.033.849.033.289.044.575.119.858.225.283.105.485.213.608.325.2.167.347.236.441.208.094-.028.241-.175.441-.441.111-.167.208-.353.292-.558.083-.206.125-.369.125-.491 0-.3.067-.511.2-.633.111-.111.191-.411.241-.899.05-.489.136-1.754.258-3.797l.133-2.515-1.149.216c-.744.133-1.524.181-2.34.142-.816-.039-1.335-.152-1.557-.341-.1-.078-.184-.197-.25-.358-.066-.161-.1-.325-.1-.491 0-.411.255-1.016.766-1.815s1.122-1.568 1.832-2.307 1.323-1.231 1.833-1.476zm1.216 3.231c0-.233-.083-.388-.25-.466-.167-.077-.367-.066-.6.034-.233.1-.439.272-.616.516-.289.422-.433.794-.433 1.116 0 .123.033.184.1.184.266 0 .633-.178 1.099-.533.467-.356.7-.639.7-.851zM263.423 143.883c.311-.466.677-.686 1.1-.658.422.028.738.297.949.808.222.533.283.927.183 1.183-.145.377-.033 1.019.333 1.924.367.905.789 1.562 1.266 1.974.544.478 1.066.741 1.565.791.5.05 1.06-.114 1.682-.492.644-.388 1.096-.813 1.357-1.274.261-.46.297-.902.108-1.324-.211-.521-.297-.982-.258-1.382.039-.399.205-.699.5-.899.294-.2.658-.233 1.091-.1.4.133.728.502.983 1.107s.333 1.186.233 1.74c-.122.578-.491 1.205-1.107 1.882s-1.363 1.274-2.24 1.791c-.877.516-1.715.852-2.515 1.007-1.155.211-2.229-.247-3.223-1.374-.994-1.127-1.719-2.712-2.174-4.755-.122-.533-.172-.918-.15-1.158.023-.238.128-.502.317-.791zM285.808 142.384c.089-.144.327-.169.716-.075.388.094.705.252.949.475.144.133.213.325.208.575-.005.25-.097.697-.275 1.34-.244.944-.328 1.882-.25 2.815.078.933.3 1.721.666 2.365.144.244.267.505.367.783.1.277.15.483.15.616 0 .322-.167.583-.5.783s-.719.289-1.157.267c-.439-.022-.802-.161-1.091-.417-.178-.167-.302-.397-.375-.691-.072-.294-.108-.735-.108-1.324 0-1.044-.05-1.566-.15-1.566-.1 0-.444.267-1.033.8-.822.744-1.86 1.493-3.114 2.248-1.255.755-2.215 1.205-2.881 1.349-.5.111-.96.069-1.382-.125-.422-.195-.716-.497-.883-.908s-.161-.844.017-1.299c.178-.477.905-1.305 2.182-2.481 1.276-1.177 2.634-2.288 4.072-3.331 1.438-1.044 2.44-1.638 3.006-1.782.189-.044.369-.108.542-.191.171-.084.28-.159.324-.226zm-1.499 3.764c0-.3-.066-.45-.2-.45-.178.011-.828.405-1.949 1.183-.578.389-1.194.869-1.849 1.44-.655.572-1.188 1.085-1.599 1.541-.411.456-.578.722-.5.8.1.1.516-.05 1.249-.45.733-.4 1.343-.8 1.832-1.199.533-.455.883-.683 1.049-.683.233 0 .619-.3 1.158-.899.54-.6.809-1.027.809-1.283zM289.805 137.621c.189-.233.472-.339.85-.316s.71.172 1 .45c.21.189.344.483.399.882.056.4.083 1.222.083 2.465 0 1.932.136 3.417.408 4.455.272 1.039.486 2.501.642 4.389.066.777.167 1.562.3 2.357.133.793.255 1.357.366 1.69.355 1.021.394 1.688.117 1.999-.256.289-.655.133-1.199-.466-.4-.433-.786-1.532-1.158-3.298s-.78-4.43-1.224-7.995c-.111-.866-.244-1.707-.399-2.523-.156-.816-.289-1.363-.4-1.641-.402-.944-.329-1.759.215-2.448z"/></g><g class="letters l-shutter" fill="#58595B"><path d="M544.312 124.95c.466-.133 1.024-.164 1.674-.092.649.073.991.203 1.024.392.033.222-.473.608-1.516 1.158-1.044.549-2.215 1.052-3.515 1.507-.988.344-1.731.633-2.231.866l-.75.35 1.482.616c1 .411 1.971.738 2.915.982.943.255 1.896.636 2.856 1.141s1.568.952 1.823 1.34c.233.367.309.739.226 1.116-.084.377-.303.66-.658.849-.533.289-1.363.497-2.49.625-1.127.127-2.224.147-3.289.058-1.066-.089-1.788-.272-2.165-.55-.444-.322-.439-.555.017-.699.422-.133 1.349-.239 2.781-.316 1.854-.089 2.837-.189 2.948-.3.188-.2-.084-.478-.816-.833-.645-.311-1.671-.699-3.081-1.166-1.511-.488-2.618-.888-3.323-1.199-.705-.311-1.196-.608-1.474-.891s-.416-.63-.416-1.041c0-.4.044-.661.133-.783s.289-.217.6-.283c.5-.1 1.005-.28 1.516-.542.511-.261.863-.391 1.058-.391s.658-.167 1.391-.5c1.764-.809 2.858-1.281 3.28-1.414zM550.157 116.872c.167-.422.419-.661.758-.716.339-.055.603.095.791.45.167.3.178.944.034 1.932-.067.399-.128 1.016-.184 1.849-.056.833-.1 1.715-.133 2.648-.034.933-.059 1.835-.075 2.707-.017.872-.017 1.591 0 2.157.017.566.047.85.092.85.055 0 .199-.136.433-.408.233-.272.488-.602.767-.991.555-.755 1.323-1.568 2.307-2.44.982-.872 1.796-1.463 2.439-1.774.544-.267 1.027-.277 1.449-.033s.749.727.982 1.449c.233.744.414 1.205.542 1.383.127.178.252.771.374 1.782.066.444.095.786.084 1.024-.012.239-.048.397-.108.475-.062.078-.187.145-.375.2-.355.111-.747.022-1.174-.266-.428-.289-.786-.702-1.074-1.241-.289-.539-.434-1.075-.434-1.607 0-.133-.036-.25-.108-.35-.072-.1-.152-.15-.241-.15-.366 0-.997.461-1.891 1.382-.894.922-1.607 1.849-2.14 2.781-.711 1.222-1.286 2.049-1.725 2.481-.438.433-.868.594-1.29.483-.789-.189-1.077-1.088-.866-2.698.11-.789.222-3.092.333-6.912.044-1.576.108-2.995.191-4.255.084-1.262.165-1.992.242-2.192zM562.133 127.531c.311-.466.677-.686 1.099-.658s.738.297.949.808c.223.533.283.927.184 1.183-.145.377-.033 1.019.333 1.924s.788 1.562 1.266 1.974c.544.478 1.066.741 1.565.791.5.05 1.061-.114 1.683-.492.644-.388 1.097-.813 1.357-1.274.261-.46.297-.902.108-1.324-.211-.521-.297-.982-.259-1.382.039-.399.206-.699.5-.899.294-.2.658-.233 1.091-.1.4.133.728.502.982 1.107.256.605.334 1.186.233 1.74-.122.578-.491 1.205-1.107 1.882s-1.363 1.274-2.24 1.791c-.877.516-1.715.852-2.515 1.007-1.155.211-2.229-.247-3.223-1.374-.994-1.127-1.719-2.712-2.174-4.755-.122-.533-.172-.918-.149-1.158.022-.238.127-.502.317-.791zM581.119 118.671c.2-.244.467-.372.8-.383.333-.011.544.1.633.333.077.211.072 1.327-.017 3.348-.033.633-.053 1.136-.059 1.507-.006.372.003.678.025.916.021.239.053.397.092.475.038.078.097.111.175.1.61-.011 1.89-.186 3.839-.524 1.948-.339 3.039-.569 3.272-.691.444-.255.892-.239 1.341.05.45.289.675.7.675 1.233 0 .233-.137.455-.408.666-.272.211-.566.35-.883.417-.316.066-.607.05-.874-.05-.3-.155-1.464-.142-3.489.042-2.026.183-3.185.386-3.473.608-.123.089-.197.277-.226.566-.027.289-.008.733.059 1.333.122 1.099.358 2.523.708 4.272s.625 2.834.824 3.256c.2.444.205.763.017.958s-.639.341-1.349.441c-.533.066-.858.064-.975-.008s-.208-.331-.274-.774c-.156-.922-.309-2.243-.458-3.964-.15-1.721-.226-2.981-.226-3.781l-.008-.675c-.006-.172-.028-.338-.066-.5-.039-.161-.081-.28-.125-.358-.045-.078-.122-.142-.233-.192-.111-.05-.225-.075-.342-.075-.116 0-.28.017-.491.05-.211.034-.428.081-.649.142-.222.061-.505.147-.85.258-1.299.4-2.154.641-2.564.725-.411.083-.738.081-.982-.008-.2-.078-.3-.167-.3-.267s.089-.328.267-.683c.21-.411.577-.708 1.099-.891.521-.184 1.56-.392 3.114-.625.833-.122 1.338-.238 1.516-.35.067-.044.142-.394.226-1.049.083-.655.142-1.416.175-2.282.087-2.112.242-3.3.464-3.566zM599.756 118.671c.2-.244.467-.372.8-.383.333-.011.544.1.633.333.077.211.072 1.327-.017 3.348-.033.633-.053 1.136-.059 1.507-.006.372.003.678.025.916.021.239.053.397.092.475.038.078.097.111.175.1.61-.011 1.89-.186 3.839-.524 1.948-.339 3.039-.569 3.272-.691.444-.255.892-.239 1.341.05.45.289.675.7.675 1.233 0 .233-.137.455-.408.666-.272.211-.566.35-.883.417-.316.066-.607.05-.874-.05-.3-.155-1.464-.142-3.489.042-2.026.183-3.185.386-3.473.608-.123.089-.197.277-.226.566-.027.289-.008.733.059 1.333.122 1.099.358 2.523.708 4.272s.625 2.834.824 3.256c.2.444.205.763.017.958s-.639.341-1.349.441c-.533.066-.858.064-.975-.008s-.208-.331-.274-.774c-.156-.922-.309-2.243-.458-3.964-.15-1.721-.226-2.981-.226-3.781l-.008-.675c-.006-.172-.028-.338-.066-.5-.039-.161-.081-.28-.125-.358-.045-.078-.122-.142-.233-.192-.111-.05-.225-.075-.342-.075-.116 0-.28.017-.491.05-.211.034-.428.081-.649.142-.222.061-.505.147-.85.258-1.299.4-2.154.641-2.564.725-.411.083-.738.081-.982-.008-.2-.078-.3-.167-.3-.267s.089-.328.267-.683c.21-.411.577-.708 1.099-.891.521-.184 1.56-.392 3.114-.625.833-.122 1.338-.238 1.516-.35.067-.044.142-.394.226-1.049.083-.655.142-1.416.175-2.282.087-2.112.242-3.3.464-3.566zM616.079 125.783c.766-.167 1.285-.233 1.557-.2s.603.206.991.517c.467.377.88.966 1.241 1.765.36.8.441 1.316.241 1.549-.277.333-1.738.833-4.381 1.499-.355.089-.674.192-.957.308-.283.117-.447.208-.491.275-.111.2.172.639.85 1.316.677.677 1.304 1.144 1.882 1.399 1.632.733 3.081.456 4.347-.833.544-.566.977-1.174 1.299-1.824.322-.65.467-1.225.434-1.724-.012-.311.086-.627.291-.949.205-.322.455-.561.75-.716.294-.155.547-.167.758-.033.177.111.297.308.357.591.062.283.092.764.092 1.44-.011.733-.069 1.291-.175 1.674-.105.383-.347.875-.725 1.474-.355.566-.569.963-.641 1.191-.073.228-.036.386.107.475.178.144.122.217-.166.217-.145 0-.408.097-.791.291s-.77.43-1.158.708l-.666.45s-.357.194-.607.283-.456.147-.616.175c-.161.028-.437.039-.824.033-.39-.005-.756-.022-1.1-.05-.345-.028-.86-.075-1.549-.142-.544-.044-1.008-.105-1.391-.183-.384-.078-.575-.145-.575-.2 0-.133-.461-.889-1.382-2.265-.6-.922-.985-1.593-1.158-2.016-.172-.422-.285-1.004-.341-1.749-.056-.766-.053-1.288.008-1.566.062-.277.259-.61.592-.999.399-.478.966-.921 1.698-1.333.733-.41 1.466-.693 2.199-.848zm1.316 2.081c.011-.055-.009-.097-.059-.125-.05-.027-.136-.039-.258-.033-.122.006-.28.028-.475.067l-.774.175c-.622.145-1.017.366-1.183.666-.089.178-.045.322.133.433.155.089.628-.042 1.416-.392.788-.349 1.189-.613 1.2-.791zm8.543-18.303c.178-.178.283-.184.316-.017.022.111.033.328.033.649 0 .233-.024.427-.074.583-.051.155-.114.233-.192.233-.155 0-.244-.208-.266-.625-.022-.416.039-.69.183-.823zM633.267 126.932c.556-.188.894-.286 1.017-.292.122-.005.228.064.316.208.255.422-.15.966-1.216 1.632-.666.411-1.336 1.016-2.007 1.815-.672.8-1.125 1.527-1.357 2.182-.233.655-.355 1.443-.367 2.365-.011.655-.058 1.074-.142 1.258-.083.183-.319.375-.707.574-.645.344-1.074.43-1.291.258-.217-.172-.275-.641-.175-1.407.122-.844.258-2.34.408-4.489.149-2.148.232-3.245.249-3.29.018-.044.214-.066.592-.066.178 0 .306.031.383.092.078.061.095.147.05.258-.033.089-.033.245 0 .466.033.223.095.439.184.65l.333.783.533-.916c.267-.444.652-.83 1.157-1.158.504-.326 1.185-.634 2.04-.923zM636.265 119.47c.433-.422.791-.633 1.074-.633s.568.211.857.633l.033.066c.188.267.289.55.3.85.011.422-.184 2.071-.583 4.947l-.066.466-.134.933 2.499.683c1.088.3 1.812.542 2.173.725.361.183.669.469.925.858.267.399.41.686.433.857.022.172-.05.425-.216.758-.111.211-.342.478-.691.8-.35.322-.722.605-1.116.849-.395.245-.813.542-1.257.891-.444.35-.777.647-1 .891-.444.466-.815.741-1.115.824-.3.083-.717.02-1.25-.191-.466-.177-.802-.447-1.007-.808-.206-.361-.342-.975-.408-1.84-.066-.866-.056-2.049.033-3.548.144-3.02.219-4.98.225-5.879.006-.899-.047-1.521-.158-1.866-.089-.222-.1-.425-.033-.608s.226-.402.482-.658zm4.28 10.26c-.189-.111-.569-.197-1.142-.258-.571-.061-1.007-.064-1.307-.008-.233.044-.39.13-.467.258-.078.128-.116.347-.116.658 0 .333.041.547.125.641.083.095.274.142.574.142.467 0 .999-.144 1.599-.433.9-.423 1.144-.756.734-1zM645.092 127.531c.311-.466.677-.686 1.099-.658s.738.297.949.808c.223.533.283.927.184 1.183-.145.377-.033 1.019.333 1.924s.788 1.562 1.266 1.974c.544.478 1.066.741 1.565.791.5.05 1.061-.114 1.683-.492.644-.388 1.097-.813 1.357-1.274.261-.46.297-.902.108-1.324-.211-.521-.297-.982-.259-1.382.039-.399.206-.699.5-.899.294-.2.658-.233 1.091-.1.4.133.728.502.982 1.107.256.605.334 1.186.233 1.74-.122.578-.491 1.205-1.107 1.882s-1.363 1.274-2.24 1.791c-.877.516-1.715.852-2.515 1.007-1.155.211-2.229-.247-3.223-1.374-.994-1.127-1.719-2.712-2.174-4.755-.122-.533-.172-.918-.149-1.158.022-.238.127-.502.317-.791zM661.646 127.098c.645-.3 1.263-.458 1.857-.475.594-.017 1.002.108 1.224.375.089.111.206.206.351.283.144.078.266.117.366.117.222 0 .43.175.624.525.194.35.292.73.292 1.141 0 .178.03.364.092.558.061.194.136.336.225.425.211.211.255.38.133.508s-.289.081-.499-.142c-.134-.122-.253-.177-.358-.167-.105.011-.241.094-.408.25-.2.178-.319.569-.358 1.174-.039.605-.03 1.99.025 4.156.044 1.743.039 3.159-.017 4.247s-.181 1.979-.375 2.673-.452 1.177-.774 1.449-.744.408-1.266.408c-.5 0-.905.083-1.216.25-.188.1-.561.011-1.116-.267-.555-.277-1.08-.625-1.573-1.041-.494-.417-.758-.752-.792-1.008-.044-.267-.017-.422.084-.466.1-.044.383-.033.85.033.288.044.574.119.857.225.283.105.485.213.607.325.2.167.348.236.441.208.095-.028.242-.175.441-.441.111-.167.208-.353.292-.558.083-.206.125-.369.125-.491 0-.3.066-.511.199-.633.111-.111.191-.411.242-.899.05-.489.136-1.754.258-3.797l.133-2.515-1.148.216c-.744.133-1.524.181-2.341.142-.815-.039-1.335-.152-1.557-.341-.101-.078-.184-.197-.25-.358-.066-.161-.1-.325-.1-.491 0-.411.255-1.016.766-1.815s1.121-1.568 1.832-2.307 1.322-1.231 1.832-1.476zm1.216 3.231c0-.233-.083-.388-.25-.466-.166-.077-.366-.066-.6.034-.232.1-.438.272-.616.516-.288.422-.433.794-.433 1.116 0 .123.033.184.1.184.267 0 .633-.178 1.1-.533.466-.356.699-.639.699-.851z"/></g><path class="an2 l-shutter" fill="none" stroke="#EE2A7B" stroke-width=".5" stroke-miterlimit="10" d="M590.486 147.281l-39.516 77.141"/><circle class="an3 l-shutter" fill="#EE2A7B" cx="550.97" cy="224.422" r="2.774"/><g class="letters l-choc" fill="#58595B"><path d="M116.03 290.686c.855-.854 1.435-1.382 1.74-1.582s.636-.272.991-.216c.699.122 1.155.463 1.366 1.024.211.561.105 1.141-.316 1.741-.167.233-.331.383-.492.45-.161.066-.38.072-.658.017-.289-.067-.552-.039-.791.083-.239.123-.586.4-1.041.833-.489.466-.938 1.041-1.349 1.724-.411.683-.616 1.191-.616 1.524 0 .044.061.12.183.225s.272.203.45.292c.255.133.53.2.825.2.294 0 .758-.061 1.391-.183.655-.144 1.624-.505 2.906-1.083s2.462-1.18 3.539-1.807 1.677-1.069 1.799-1.324c.211-.455.502-.719.875-.791s.702.075.991.441c.322.389.483.683.483.883 0 .277-.758.869-2.273 1.773-1.516.905-3.167 1.771-4.955 2.598-1.788.828-3.026 1.28-3.714 1.357-1.899.233-3.231-.066-3.998-.899-.688-.732-.794-1.749-.316-3.048.476-1.3 1.47-2.71 2.98-4.232zM130.137 281.176c.167-.422.419-.661.758-.716.338-.055.602.095.791.45.167.3.177.944.033 1.932-.066.399-.127 1.016-.183 1.849-.056.833-.1 1.715-.133 2.648s-.058 1.835-.075 2.707c-.017.872-.017 1.591 0 2.157.017.566.047.85.091.85.056 0 .2-.136.433-.408.233-.272.488-.602.766-.991.555-.755 1.324-1.568 2.307-2.44.983-.872 1.796-1.463 2.44-1.774.544-.267 1.027-.277 1.449-.033.422.244.75.727.982 1.449.233.744.414 1.205.542 1.383.127.178.252.771.375 1.782.067.444.094.786.083 1.024-.011.239-.047.397-.108.475s-.186.145-.375.2c-.355.111-.747.022-1.174-.266-.428-.289-.786-.702-1.074-1.241-.289-.539-.433-1.075-.433-1.607 0-.133-.036-.25-.108-.35-.072-.1-.152-.15-.241-.15-.367 0-.997.461-1.891 1.382-.894.922-1.607 1.849-2.14 2.781-.71 1.222-1.285 2.049-1.724 2.481-.439.433-.869.594-1.291.483-.788-.189-1.077-1.088-.866-2.698.111-.789.222-3.092.333-6.912.044-1.576.108-2.995.191-4.255.084-1.262.164-1.992.242-2.192zM144.061 291.652c.644-.71 1.693-.588 3.148.366.877.578 1.485 1.21 1.824 1.899.338.688.43 1.477.275 2.365-.222 1.199-.766 2.227-1.632 3.082-.866.854-1.943 1.426-3.231 1.715-1.81.411-2.693-.083-2.648-1.482.034-.988.527-2.387 1.482-4.197.355-.688.58-1.191.675-1.507.094-.316.08-.536-.042-.658-.456-.444-.407-.972.149-1.583zm3.164 3.365c-.178-.444-.428-.727-.75-.85-.267-.055-.417.056-.45.333 0 .255-.267.894-.799 1.915-.222.411-.414.819-.575 1.224-.161.406-.241.68-.241.825 0 .211.044.331.133.358.089.028.278-.014.566-.125.367-.144.733-.405 1.099-.783.367-.377.7-.833 1-1.366.167-.289.25-.524.25-.708 0-.182-.078-.457-.233-.823zM153.638 290.686c.855-.854 1.435-1.382 1.74-1.582s.636-.272.991-.216c.699.122 1.155.463 1.366 1.024.211.561.105 1.141-.316 1.741-.167.233-.331.383-.492.45-.161.066-.38.072-.658.017-.289-.067-.552-.039-.791.083-.239.123-.586.4-1.041.833-.489.466-.938 1.041-1.349 1.724-.411.683-.616 1.191-.616 1.524 0 .044.061.12.183.225s.272.203.45.292c.255.133.53.2.825.2.294 0 .758-.061 1.391-.183.655-.144 1.624-.505 2.906-1.083s2.462-1.18 3.539-1.807 1.677-1.069 1.799-1.324c.211-.455.502-.719.875-.791s.702.075.991.441c.322.389.483.683.483.883 0 .277-.758.869-2.273 1.773-1.516.905-3.167 1.771-4.955 2.598-1.788.828-3.026 1.28-3.714 1.357-1.899.233-3.231-.066-3.998-.899-.688-.732-.794-1.749-.316-3.048.476-1.3 1.469-2.71 2.98-4.232zM169.177 291.652c.644-.71 1.693-.588 3.148.366.877.578 1.485 1.21 1.824 1.899.338.688.43 1.477.275 2.365-.222 1.199-.766 2.227-1.632 3.082-.866.854-1.943 1.426-3.231 1.715-1.81.411-2.693-.083-2.648-1.482.034-.988.527-2.387 1.482-4.197.355-.688.58-1.191.675-1.507.094-.316.08-.536-.042-.658-.456-.444-.406-.972.149-1.583zm3.164 3.365c-.178-.444-.428-.727-.75-.85-.267-.055-.417.056-.45.333 0 .255-.267.894-.799 1.915-.222.411-.414.819-.575 1.224-.161.406-.241.68-.241.825 0 .211.044.331.133.358.089.028.278-.014.566-.125.367-.144.733-.405 1.099-.783.367-.377.7-.833 1-1.366.167-.289.25-.524.25-.708.001-.182-.077-.457-.233-.823zM176.322 281.176c.167-.422.419-.661.758-.716.338-.055.602.095.791.45.167.3.177.944.033 1.932-.066.399-.127 1.016-.183 1.849-.056.833-.1 1.715-.133 2.648s-.058 1.835-.075 2.707c-.017.872-.017 1.591 0 2.157.017.566.047.85.091.85.056 0 .2-.136.433-.408.233-.272.488-.602.766-.991.555-.755 1.324-1.568 2.307-2.44.983-.872 1.796-1.463 2.44-1.774.544-.267 1.027-.277 1.449-.033.422.244.75.727.982 1.449.233.744.414 1.205.542 1.383.127.178.252.771.375 1.782.067.444.094.786.083 1.024-.011.239-.047.397-.108.475s-.186.145-.375.2c-.355.111-.747.022-1.174-.266-.428-.289-.786-.702-1.074-1.241-.289-.539-.433-1.075-.433-1.607 0-.133-.036-.25-.108-.35-.072-.1-.152-.15-.241-.15-.367 0-.997.461-1.891 1.382-.894.922-1.607 1.849-2.14 2.781-.71 1.222-1.285 2.049-1.724 2.481-.439.433-.869.594-1.291.483-.788-.189-1.077-1.088-.866-2.698.111-.789.222-3.092.333-6.912.044-1.576.108-2.995.191-4.255.084-1.262.164-1.992.242-2.192zM190.246 291.652c.644-.71 1.693-.588 3.148.366.877.578 1.485 1.21 1.824 1.899.338.688.43 1.477.275 2.365-.222 1.199-.766 2.227-1.632 3.082-.866.854-1.943 1.426-3.231 1.715-1.81.411-2.693-.083-2.648-1.482.034-.988.527-2.387 1.482-4.197.355-.688.58-1.191.675-1.507.094-.316.08-.536-.042-.658-.456-.444-.407-.972.149-1.583zm3.164 3.365c-.178-.444-.428-.727-.75-.85-.267-.055-.417.056-.45.333 0 .255-.267.894-.799 1.915-.222.411-.414.819-.575 1.224-.161.406-.241.68-.241.825 0 .211.044.331.133.358.089.028.278-.014.566-.125.367-.144.733-.405 1.099-.783.367-.377.7-.833 1-1.366.167-.289.25-.524.25-.708.001-.182-.078-.457-.233-.823zM197.024 285.573c.189-.233.472-.339.85-.316s.71.172 1 .45c.21.189.344.483.399.882.056.4.083 1.222.083 2.465 0 1.932.136 3.417.408 4.455.272 1.039.486 2.501.642 4.389.066.777.167 1.562.3 2.357.133.793.255 1.357.366 1.69.355 1.021.394 1.688.117 1.999-.256.289-.655.133-1.199-.466-.4-.433-.786-1.532-1.158-3.298s-.78-4.43-1.224-7.995c-.111-.866-.244-1.707-.399-2.523-.156-.816-.289-1.363-.4-1.641-.401-.943-.329-1.759.215-2.448zM202.82 287.372c.178-.122.436-.13.774-.025.339.106.608.281.808.525.177.2.347.822.508 1.865.161 1.044.292 2.349.392 3.914.033.511.103 1.005.208 1.482s.219.805.341.982c.289.456.322.93.1 1.424s-.594.774-1.116.841c-.511.056-.889-.208-1.133-.791s-.417-1.657-.516-3.223c-.056-.71-.139-1.452-.25-2.224-.111-.771-.222-1.346-.333-1.724-.2-.677-.281-1.31-.242-1.899.04-.586.193-.969.459-1.147zm1.266-6.146c.311-.311.549-.472.716-.483.167-.011.428.128.783.417.477.377.854.999 1.132 1.865.255.789.255 1.255 0 1.399l-.133.033c-.189 0-.652-.122-1.391-.366s-1.18-.422-1.324-.533c-.255-.188-.358-.549-.308-1.083.05-.533.225-.949.525-1.249zM211.148 290.686c.855-.854 1.435-1.382 1.74-1.582s.636-.272.991-.216c.699.122 1.155.463 1.366 1.024.211.561.105 1.141-.316 1.741-.167.233-.331.383-.492.45-.161.066-.38.072-.658.017-.289-.067-.552-.039-.791.083-.239.123-.586.4-1.041.833-.489.466-.938 1.041-1.349 1.724-.411.683-.616 1.191-.616 1.524 0 .044.061.12.183.225s.272.203.45.292c.255.133.53.2.825.2.294 0 .758-.061 1.391-.183.655-.144 1.624-.505 2.906-1.083s2.462-1.18 3.539-1.807 1.677-1.069 1.799-1.324c.211-.455.502-.719.875-.791s.702.075.991.441c.322.389.483.683.483.883 0 .277-.758.869-2.273 1.773-1.516.905-3.167 1.771-4.955 2.598-1.788.828-3.026 1.28-3.714 1.357-1.899.233-3.231-.066-3.998-.899-.688-.732-.794-1.749-.316-3.048.476-1.3 1.47-2.71 2.98-4.232z"/></g><path class="an2 l-choc" fill="none" stroke="#EE2A7B" stroke-width=".5" stroke-miterlimit="10" d="M226.544 295.56h77.331"/><circle class="an3 l-choc" fill="#EE2A7B" cx="303.875" cy="295.56" r="2.774"/><path class="an2 l-beach" fill="none" stroke="#EE2A7B" stroke-width=".5" stroke-miterlimit="10" d="M210.221 426.429l81.029-30.764"/><circle class="an3 l-beach" fill="#EE2A7B" cx="291.25" cy="395.665" r="2.774"/><g class="letters l-beach" fill="#58595B"><path d="M131.633 433.908c.433-.422.791-.633 1.074-.633s.569.211.858.633l.033.066c.188.267.289.55.3.85.011.422-.183 2.071-.583 4.946l-.066.467-.133.933 2.498.683c1.088.3 1.812.541 2.174.725.36.184.668.469.924.857.267.4.411.687.433.858.022.172-.05.425-.217.758-.111.211-.341.478-.691.799-.35.322-.722.605-1.116.85s-.813.541-1.257.892c-.444.35-.777.646-1 .891-.444.467-.816.741-1.116.824s-.716.02-1.249-.191c-.466-.178-.802-.446-1.008-.808-.206-.36-.341-.975-.408-1.841-.067-.866-.056-2.048.033-3.547.144-3.021.219-4.98.225-5.88.005-.899-.047-1.521-.158-1.865-.089-.222-.1-.425-.033-.607.067-.185.228-.404.483-.66zm4.281 10.26c-.189-.111-.569-.197-1.141-.259-.572-.061-1.008-.063-1.308-.008-.233.044-.389.131-.466.258-.078.128-.117.348-.117.658 0 .333.042.547.125.642.083.094.275.141.575.141.466 0 1-.144 1.599-.433.899-.422 1.143-.755.733-.999zM144.691 440.221c.766-.167 1.285-.233 1.558-.2.271.033.602.206.991.517.466.377.88.966 1.241 1.766.361.799.441 1.315.242 1.549-.278.333-1.738.832-4.38 1.499-.355.089-.674.191-.958.308-.283.117-.447.208-.492.275-.111.199.172.639.85 1.315.677.678 1.305 1.144 1.882 1.399 1.632.732 3.082.455 4.347-.833.544-.566.977-1.175 1.299-1.824.322-.649.466-1.224.433-1.724-.011-.311.086-.627.292-.949s.456-.561.75-.716c.294-.155.547-.167.758-.033.178.11.297.308.358.591s.091.764.091 1.44c-.011.733-.069 1.291-.175 1.674s-.347.875-.725 1.475c-.355.565-.569.963-.641 1.19s-.036.386.108.475c.177.145.122.217-.167.217-.145 0-.408.097-.791.291-.383.194-.769.431-1.158.708l-.666.45c-.156.1-.358.193-.608.282-.25.089-.456.147-.617.176-.161.027-.436.038-.824.033-.389-.006-.755-.022-1.099-.051-.344-.027-.861-.074-1.549-.141-.544-.045-1.008-.106-1.391-.184s-.574-.145-.574-.2c0-.133-.461-.889-1.382-2.265-.6-.922-.986-1.594-1.158-2.016-.172-.422-.286-1.005-.341-1.749-.056-.766-.053-1.287.008-1.565.061-.277.258-.61.591-.999.399-.478.966-.922 1.699-1.332.733-.411 1.465-.694 2.198-.849zm1.316 2.082c.011-.056-.008-.098-.058-.125-.05-.028-.136-.039-.258-.033-.123.005-.281.027-.475.066-.194.039-.453.097-.774.175-.622.145-1.016.366-1.183.666-.089.178-.044.322.133.434.155.089.627-.042 1.416-.392.788-.35 1.188-.614 1.199-.791zM166.16 440.471c.089-.145.327-.17.716-.075.388.095.705.253.949.475.144.133.213.324.208.574s-.097.697-.275 1.341c-.244.944-.328 1.882-.25 2.814.078.934.3 1.722.666 2.365.144.245.267.506.367.783.1.277.15.482.15.616 0 .322-.167.583-.5.782-.333.2-.719.289-1.157.267-.439-.022-.802-.161-1.091-.416-.178-.167-.302-.397-.375-.691s-.108-.735-.108-1.324c0-1.043-.05-1.565-.15-1.565-.1 0-.444.267-1.033.8-.822.744-1.86 1.493-3.114 2.248-1.255.755-2.215 1.205-2.881 1.35-.5.11-.96.069-1.382-.125-.422-.194-.716-.497-.883-.908-.167-.41-.161-.844.017-1.299.178-.478.905-1.305 2.182-2.481 1.276-1.177 2.634-2.287 4.072-3.331s2.44-1.638 3.006-1.782c.189-.044.369-.108.542-.191.171-.086.279-.161.324-.227zm-1.499 3.763c0-.3-.066-.449-.2-.449-.178.011-.828.405-1.949 1.182-.578.39-1.194.869-1.849 1.441-.655.571-1.188 1.085-1.599 1.54-.411.456-.578.722-.5.8.1.1.516-.05 1.249-.45.733-.399 1.343-.799 1.832-1.199.533-.455.883-.683 1.049-.683.233 0 .619-.3 1.158-.899.539-.6.809-1.027.809-1.283zM172.955 440.82c.855-.855 1.435-1.383 1.74-1.582.305-.2.636-.272.991-.217.699.122 1.155.464 1.366 1.024s.105 1.141-.316 1.74c-.167.233-.331.383-.492.449-.161.067-.38.072-.658.017-.289-.066-.552-.038-.791.084s-.586.399-1.041.832c-.489.467-.938 1.041-1.349 1.725-.411.683-.616 1.19-.616 1.523 0 .045.061.119.183.225.122.106.272.203.45.292.255.133.53.2.825.2.294 0 .758-.062 1.391-.184.655-.145 1.624-.505 2.906-1.083 1.282-.577 2.462-1.18 3.539-1.807s1.677-1.068 1.799-1.324c.211-.455.502-.719.875-.791s.702.075.991.441c.322.389.483.683.483.883 0 .277-.758.869-2.273 1.773-1.516.905-3.167 1.771-4.955 2.599s-3.026 1.279-3.714 1.357c-1.899.232-3.231-.067-3.998-.899-.688-.733-.794-1.749-.316-3.048.476-1.298 1.47-2.707 2.98-4.229zM187.062 431.31c.167-.422.419-.66.758-.716.338-.056.602.095.791.45.167.3.177.943.033 1.932-.066.399-.127 1.016-.183 1.849s-.1 1.716-.133 2.648-.058 1.835-.075 2.706c-.017.872-.017 1.591 0 2.157s.047.85.091.85c.056 0 .2-.137.433-.408.233-.272.488-.603.766-.991.555-.755 1.324-1.568 2.307-2.44.983-.871 1.796-1.463 2.44-1.773.544-.267 1.027-.277 1.449-.033.422.244.75.728.982 1.449.233.744.414 1.205.542 1.382.127.178.252.772.375 1.782.067.444.094.786.083 1.024-.011.239-.047.397-.108.475-.061.078-.186.145-.375.2-.355.111-.747.022-1.174-.267-.428-.289-.786-.702-1.074-1.241-.289-.538-.433-1.074-.433-1.607 0-.133-.036-.249-.108-.35-.072-.1-.152-.149-.241-.149-.367 0-.997.461-1.891 1.382-.894.922-1.607 1.849-2.14 2.782-.71 1.221-1.285 2.048-1.724 2.481-.439.433-.869.594-1.291.482-.788-.188-1.077-1.088-.866-2.698.111-.788.222-3.092.333-6.911.044-1.577.108-2.995.191-4.256.084-1.261.164-1.991.242-2.191zM207.514 435.707c.189-.233.472-.339.85-.316s.71.172 1 .449c.21.189.344.483.399.883.056.4.083 1.222.083 2.465 0 1.933.136 3.418.408 4.456s.486 2.501.642 4.389c.066.776.167 1.562.3 2.356s.255 1.357.366 1.69c.355 1.021.394 1.688.117 1.998-.256.289-.655.134-1.199-.466-.4-.434-.786-1.532-1.158-3.298s-.78-4.431-1.224-7.994c-.111-.866-.244-1.707-.399-2.523-.156-.816-.289-1.363-.4-1.641-.401-.943-.329-1.759.215-2.448zM215.109 441.786c.644-.711 1.693-.589 3.148.366.877.577 1.485 1.211 1.824 1.898.338.688.43 1.478.275 2.365-.222 1.199-.766 2.227-1.632 3.081-.866.855-1.943 1.427-3.231 1.716-1.81.41-2.693-.083-2.648-1.482.034-.988.527-2.387 1.482-4.197.355-.688.58-1.19.675-1.507.094-.316.08-.536-.042-.658-.456-.443-.406-.972.149-1.582zm3.164 3.364c-.178-.444-.428-.728-.75-.85-.267-.056-.417.056-.45.333 0 .256-.267.895-.799 1.916-.222.41-.414.818-.575 1.224-.161.405-.241.681-.241.824 0 .211.044.331.133.358.089.028.278-.014.566-.125.367-.144.733-.405 1.099-.782.367-.378.7-.833 1-1.366.167-.288.25-.524.25-.708.001-.182-.077-.457-.233-.824zM230.565 438.139c.355-.267.738-.366 1.149-.3s.76.289 1.049.666c.311.389.43.735.358 1.041s-.402.857-.991 1.657c-.355.488-.894 1.324-1.616 2.507s-1.416 2.379-2.082 3.589c-.2.366-.542.699-1.024.999s-.958.473-1.424.517c-.056 0-.144-.089-.266-.267-.123-.178-.233-.394-.333-.649-.255-.6-.786-1.433-1.59-2.498-.805-1.066-1.347-1.654-1.624-1.766-.111-.044-.23-.149-.358-.316-.128-.167-.23-.344-.308-.533-.089-.311-.1-.636-.033-.974.066-.339.205-.642.416-.908s.433-.399.667-.399c.222 0 .594.232 1.116.699s.783.805.783 1.016c0 .123.427.717 1.283 1.782l1.282 1.599.6-.749c.555-.688 1.074-1.552 1.557-2.59.483-1.038.752-1.874.808-2.507.033-.377.105-.716.216-1.016s.232-.501.365-.6zM238.692 440.221c.766-.167 1.285-.233 1.558-.2.271.033.602.206.991.517.466.377.88.966 1.241 1.766.361.799.441 1.315.242 1.549-.278.333-1.738.832-4.38 1.499-.355.089-.674.191-.958.308-.283.117-.447.208-.492.275-.111.199.172.639.85 1.315.677.678 1.305 1.144 1.882 1.399 1.632.732 3.082.455 4.347-.833.544-.566.977-1.175 1.299-1.824.322-.649.466-1.224.433-1.724-.011-.311.086-.627.292-.949s.456-.561.75-.716c.294-.155.547-.167.758-.033.178.11.297.308.358.591s.091.764.091 1.44c-.011.733-.069 1.291-.175 1.674s-.347.875-.725 1.475c-.355.565-.569.963-.641 1.19s-.036.386.108.475c.177.145.122.217-.167.217-.145 0-.408.097-.791.291-.383.194-.769.431-1.158.708l-.666.45c-.156.1-.358.193-.608.282-.25.089-.456.147-.617.176-.161.027-.436.038-.824.033-.389-.006-.755-.022-1.099-.051-.344-.027-.861-.074-1.549-.141-.544-.045-1.008-.106-1.391-.184s-.574-.145-.574-.2c0-.133-.461-.889-1.382-2.265-.6-.922-.986-1.594-1.158-2.016-.172-.422-.286-1.005-.341-1.749-.056-.766-.053-1.287.008-1.565.061-.277.258-.61.591-.999.399-.478.966-.922 1.699-1.332.733-.411 1.465-.694 2.198-.849zm1.316 2.082c.011-.056-.008-.098-.058-.125-.05-.028-.136-.039-.258-.033-.123.005-.281.027-.475.066-.194.039-.453.097-.774.175-.622.145-1.016.366-1.183.666-.089.178-.044.322.133.434.155.089.627-.042 1.416-.392.788-.35 1.188-.614 1.199-.791zM255.881 441.37c.555-.189.894-.286 1.016-.292s.228.064.316.208c.255.423-.15.966-1.216 1.633-.666.41-1.335 1.016-2.007 1.815-.672.799-1.124 1.526-1.357 2.182-.233.655-.355 1.443-.366 2.365-.011.654-.059 1.074-.142 1.257-.083.184-.319.375-.708.575-.644.344-1.074.43-1.291.258-.217-.172-.275-.642-.175-1.407.122-.844.258-2.34.408-4.488.15-2.149.233-3.245.25-3.29.017-.044.214-.066.591-.066.177 0 .305.03.383.092.078.061.094.147.05.258-.034.089-.034.244 0 .467.033.222.094.438.183.649l.333.782.533-.916c.266-.443.652-.829 1.157-1.157.507-.328 1.186-.637 2.042-.925z"/></g></svg>